<?xml version="1.0" encoding="UTF-8" standalone="no"?>
<svg
   xmlns:dc="http://purl.org/dc/elements/1.1/"
   xmlns:cc="http://creativecommons.org/ns#"
   xmlns:rdf="http://www.w3.org/1999/02/22-rdf-syntax-ns#"
   xmlns:svg="http://www.w3.org/2000/svg"
   xmlns="http://www.w3.org/2000/svg"
   xmlns:sodipodi="http://sodipodi.sourceforge.net/DTD/sodipodi-0.dtd"
   xmlns:inkscape="http://www.inkscape.org/namespaces/inkscape"
   width="105mm"
   height="39mm"
   viewBox="0 0 105 39"
   version="1.1"
   id="svg8"
   inkscape:version="1.0.1 (3bc2e813f5, 2020-09-07)"
   sodipodi:docname="logo-text.svg">
  <defs
     id="defs2" />
  <sodipodi:namedview
     id="base"
     pagecolor="#ffffff"
     bordercolor="#666666"
     borderopacity="1.0"
     inkscape:pageopacity="0.0"
     inkscape:pageshadow="2"
     inkscape:zoom="1.979899"
     inkscape:cx="176.2843"
     inkscape:cy="144.08104"
     inkscape:document-units="mm"
     inkscape:current-layer="layer1"
     inkscape:document-rotation="0"
     showgrid="false"
     inkscape:window-width="1440"
     inkscape:window-height="860"
     inkscape:window-x="0"
     inkscape:window-y="0"
     inkscape:window-maximized="0"
     units="mm" />
  <metadata
     id="metadata5">
    <rdf:RDF>
      <cc:Work
         rdf:about="">
        <dc:format>image/svg+xml</dc:format>
        <dc:type
           rdf:resource="http://purl.org/dc/dcmitype/StillImage" />
        <dc:title />
      </cc:Work>
    </rdf:RDF>
  </metadata>
  <g
     inkscape:label="Warstwa 1"
     inkscape:groupmode="layer"
     id="layer1">
    <g
       aria-label="COVER
"
       transform="scale(0.89684255,1.1150229)"
       id="text12"
       style="font-style:normal;font-variant:normal;font-weight:normal;font-stretch:normal;font-size:33.1796px;line-height:0;font-family:'Palatino Linotype';-inkscape-font-specification:'Palatino Linotype';fill:#000000;fill-opacity:1;stroke:none;stroke-width:0.829485">
      <path
         id="path148"
         style="font-style:normal;font-variant:normal;font-weight:normal;font-stretch:normal;line-height:1.25;font-family:'Palatino Linotype';-inkscape-font-specification:'Palatino Linotype';text-align:center;text-anchor:middle;stroke-width:0.829485"
         d="m 94.527541,0.81621281 0.129608,-0.11340684 q 2.964779,0.12960781 4.617278,0.12960781 1.830713,0 4.941303,-0.11340683 1.15026,-0.032402 1.6687,-0.032402 4.09884,0 5.55693,1.49048985 1.45809,1.4904899 1.45809,3.5318129 0,1.360882 -0.71284,2.6731611 -0.71285,1.3122791 -2.10613,2.2519362 -1.39329,0.923455 -3.83963,1.393284 0.45362,0.631838 1.6363,2.187131 l 2.30053,3.045784 q 1.11787,1.506691 2.39775,3.191592 1.27988,1.668701 1.6525,1.895515 0.37262,0.210612 0.63184,0.259215 0.27541,0.0486 0.85865,0.0486 l 0.12961,0.129608 v 0.761446 l -0.14581,0.145809 q -0.77765,-0.09721 -1.84691,-0.09721 -1.15027,0 -2.51116,0.09721 -1.11786,-1.360882 -3.51561,-4.714485 -2.78657,-3.888234 -5.70274,-7.209434 l 0.16201,-0.50223 q 0.84245,0.0486 1.31228,0.0486 2.80277,0 4.39046,-1.3446815 1.5877,-1.344681 1.5877,-3.7262246 0,-2.1385289 -1.42569,-3.2239943 -1.42568,-1.1016664 -3.85583,-1.1016664 -1.7011,0 -3.20779,0.4698283 -0.24302,0.3564215 -0.24302,6.0753662 V 15.96412 l 0.0162,3.15919 q 0.0162,1.830711 0.0972,2.365343 0.081,0.534632 0.22681,0.712843 0.16201,0.17821 0.59944,0.307818 0.43742,0.113407 2.15473,0.178211 l 0.12961,0.09721 v 0.810049 l -0.12961,0.129608 q -0.081,0 -2.85137,-0.09721 -1.150273,-0.0324 -1.798312,-0.0324 -0.50223,0 -4.633479,0.129608 l -0.129608,-0.129608 v -0.810049 l 0.129608,-0.09721 q 1.506691,-0.0648 2.008921,-0.16201 0.50223,-0.09721 0.66424,-0.243014 0.178211,-0.16201 0.275417,-0.66424 0.113406,-0.502231 0.129607,-2.235735 l 0.0162,-3.418406 V 8.4630737 l -0.0324,-3.1591904 Q 97.702932,3.456972 97.621928,2.9223397 97.557124,2.3877075 97.395114,2.2094968 97.249305,2.031286 96.811879,1.9178792 96.374452,1.8044724 94.657149,1.7396685 L 94.527541,1.6262616 Z m -19.765195,0 0.129608,-0.11340684 q 5.556935,0.0972059 7.112228,0.0972059 5.313921,0 9.461371,-0.0972059 l 0.081,0.11340684 Q 91.141533,2.3715065 90.947121,5.6927067 l -0.09721,0.1296078 H 90.056068 L 89.910259,5.6927067 q 0.0162,-0.1458088 0.0162,-0.2592156 0,-1.377083 -0.210613,-2.6245582 -1.02066,-0.4536273 -2.83517,-0.5832351 -1.798308,-0.1458088 -2.705563,-0.1458088 -1.279877,0 -3.272597,0.1782107 l -0.0648,2.5921562 -0.0486,2.9647787 -0.0486,3.2887984 q 1.749706,0.09721 3.223994,0.09721 1.49049,0 2.494951,-0.09721 1.00446,-0.09721 1.16647,-0.194412 0.178211,-0.113407 0.259216,-0.405024 0.09721,-0.307819 0.16201,-1.0692647 l 0.0648,-1.0044606 0.129608,-0.1296078 h 0.745245 l 0.129608,0.1296078 q -0.0324,1.7659063 -0.08101,3.5480143 l 0.08101,3.645219 -0.129608,0.129608 H 88.241558 L 88.11195,15.623905 87.998544,14.651847 q -0.145809,-1.134069 -0.210613,-1.344681 -0.0648,-0.226814 -0.307819,-0.388824 -0.226813,-0.16201 -1.198872,-0.259215 -0.972059,-0.09721 -2.673161,-0.09721 -0.939657,0 -2.867573,0.081 -0.081,1.360882 -0.081,4.536273 0,3.402205 0.081,5.006102 h 2.98098 q 3.936837,0 4.925097,-0.09721 0.988259,-0.09721 1.879313,-0.469828 0.145809,-0.372623 0.469828,-1.717304 0.340221,-1.360882 0.388824,-1.701102 l 0.162009,-0.113407 h 0.777647 l 0.129608,0.113407 q -0.145809,0.696642 -0.291617,2.430146 -0.129608,1.733504 -0.129608,2.964779 l -0.113407,0.129608 q -3.094387,-0.09721 -8.100488,-0.09721 l -4.406666,-0.0324 q -1.539093,0 -3.207793,0.129608 l -0.129608,-0.129608 v -0.534633 l 0.129608,-0.162009 q 0.955857,-0.48603 1.085465,-0.599436 0.145809,-0.129608 0.226814,-2.835171 0.09721,-2.721764 0.09721,-4.14745 V 9.3703284 l -0.0162,-3.6776217 q 0,-1.1988722 -0.0324,-1.9441172 -0.0324,-0.7614458 -0.113407,-1.0854654 -0.081,-0.3240195 -0.194412,-0.4536273 Q 77.16009,2.079889 76.917076,1.9988841 76.690262,1.9016782 76.123228,1.8368743 L 74.891954,1.7396685 74.762346,1.6262616 Z m 9.250757,-1.3122791 z M 83.948303,24.566844 Z M 60.764704,23.886403 Q 60.521689,23.17356 58.739582,18.442875 L 53.23125,4.817854 Q 52.291593,2.4849134 52.048578,2.1770948 51.805564,1.8530753 50.104461,1.7396685 L 49.958652,1.5938597 V 0.84861476 l 0.145809,-0.14580879 q 2.47875,0.12960781 4.212254,0.12960781 1.620098,0 4.293259,-0.12960781 l 0.129608,0.12960781 V 1.7234675 l -0.129608,0.1296078 q -1.960318,0 -2.349142,0.1296078 -0.372622,0.1134068 -0.372622,0.4536274 0,0.1944117 0.518431,1.7335044 0.518431,1.5228918 0.923456,2.5759553 L 62.401002,19.560743 66.629457,8.932902 q 0.437427,-1.0854654 1.279877,-3.4994109 0.842451,-2.4139455 0.842451,-2.8999748 0,-0.4050244 -0.405024,-0.5184312 Q 67.957937,1.9016782 65.981418,1.7396685 L 65.835609,1.6100607 V 0.83241378 l 0.145809,-0.12960781 q 2.835171,0.12960781 3.612818,0.12960781 0.631838,0 3.272597,-0.12960781 l 0.129608,0.12960781 V 1.6100607 l -0.129608,0.1296078 q -1.16647,0.048603 -1.409485,0.1782107 -0.243015,0.1296078 -0.437426,0.5022303 -0.178211,0.3726224 -1.15027,2.5597543 L 64.814948,17.422214 q -1.701103,4.163651 -2.413946,6.464189 z m -36.4522,-11.45409 q 0,-2.430147 0.696642,-4.5362735 0.696642,-2.1061269 2.365343,-3.8882343 1.684902,-1.7983084 4.050244,-2.770367 2.365343,-0.98825957 5.346322,-0.98825957 5.524533,0 8.797131,3.01338167 3.272597,2.9971806 3.272597,8.1976937 0,3.661421 -1.603897,6.577597 -1.603897,2.916176 -4.601077,4.536273 -2.98098,1.620098 -6.707204,1.620098 -2.64076,0 -4.860293,-0.874853 -2.219534,-0.891054 -3.791029,-2.640759 -1.555294,-1.749706 -2.268137,-4.050244 -0.696642,-2.300539 -0.696642,-4.196053 z m 3.369804,-1.069265 q 0,1.97652 0.631838,4.260857 0.648039,2.268137 1.911715,3.904436 1.279877,1.620097 2.932377,2.413945 1.6687,0.793848 3.791028,0.793848 2.511151,0 4.47147,-1.150269 1.960318,-1.15027 2.980979,-3.564215 1.020662,-2.430147 1.020662,-5.443528 0,-3.2725975 -1.166471,-5.9133567 -1.16647,-2.6407592 -3.3212,-3.8396314 -2.15473,-1.1988723 -4.779288,-1.1988723 -3.936837,0 -6.204974,2.4625484 -2.268136,2.4625485 -2.268136,7.274238 z m 8.651321,-11.85911429 z m 0.081,25.06291029 z m -13.803226,-3.710023 -0.615637,1.50669 q -3.596617,1.830711 -7.679263,1.830711 -5.8485528,0 -9.5099735,-3.3212 -3.6452197,-3.321201 -3.6452197,-8.683724 0,-3.6938224 1.8145094,-6.4479884 1.8307103,-2.7703669 4.81169,-4.1312489 2.9971808,-1.37708305 6.7234048,-1.37708305 2.15473,0 4.260857,0.45362735 2.106127,0.4536273 3.515612,1.0854654 L 22.40079,1.9340802 Q 22.028168,2.8413349 21.704148,6.4217507 L 21.590741,6.5513585 H 20.829295 L 20.699687,6.4217507 20.537678,3.6675847 Q 19.355006,2.727928 17.670105,2.2094968 16.001404,1.6748646 14.186895,1.6748646 q -2.737965,0 -4.908896,1.1826712 -2.1709308,1.1664703 -3.3698031,3.4022051 -1.1988722,2.2195338 -1.1988722,5.4435281 0,3.240195 1.4094849,5.686543 1.409485,2.446347 3.8396315,3.758626 2.4463469,1.312279 5.7027439,1.312279 1.441887,0 2.770367,-0.275416 1.32848,-0.275417 2.203333,-0.680441 0.891053,-0.405025 1.701102,-0.98826 z" />
    </g>
    <text
       xml:space="preserve"
       style="font-style:normal;font-variant:normal;font-weight:normal;font-stretch:normal;font-size:9.20135px;line-height:1.25;font-family:'Trebuchet MS';-inkscape-font-specification:'Trebuchet MS';fill:#000000;fill-opacity:1;stroke:none;stroke-width:0.230034"
       x="1.0406418"
       y="47.021851"
       id="text94"
       transform="scale(1.2190493,0.82031138)"><tspan
         sodipodi:role="line"
         id="tspan92"
         x="1.0406418"
         y="47.021851"
         style="font-style:normal;font-variant:normal;font-weight:normal;font-stretch:normal;font-family:'Trebuchet MS';-inkscape-font-specification:'Trebuchet MS';stroke-width:0.230034">HURTOWNIA KSIĄŻEK</tspan></text>
    <rect
       style="fill:#800000;stroke-width:0.188229"
       id="rect96"
       width="105.83334"
       height="0.95307082"
       x="0.40944684"
       y="29.423073" />
  </g>
</svg>
