<?xml version="1.0" encoding="UTF-8" standalone="no"?>
<svg
   xmlns:dc="http://purl.org/dc/elements/1.1/"
   xmlns:cc="http://creativecommons.org/ns#"
   xmlns:rdf="http://www.w3.org/1999/02/22-rdf-syntax-ns#"
   xmlns:svg="http://www.w3.org/2000/svg"
   xmlns="http://www.w3.org/2000/svg"
   xmlns:sodipodi="http://sodipodi.sourceforge.net/DTD/sodipodi-0.dtd"
   xmlns:inkscape="http://www.inkscape.org/namespaces/inkscape"
   width="105mm"
   height="39mm"
   viewBox="0 0 105 39"
   version="1.1"
   id="svg8"
   inkscape:version="1.0.1 (3bc2e813f5, 2020-09-07)"
   sodipodi:docname="logo-text.svg">
  <defs
     id="defs2" />
  <sodipodi:namedview
     id="base"
     pagecolor="#ffffff"
     bordercolor="#666666"
     borderopacity="1.0"
     inkscape:pageopacity="0.0"
     inkscape:pageshadow="2"
     inkscape:zoom="1.979899"
     inkscape:cx="176.2843"
     inkscape:cy="144.08104"
     inkscape:document-units="mm"
     inkscape:current-layer="layer1"
     inkscape:document-rotation="0"
     showgrid="false"
     inkscape:window-width="1440"
     inkscape:window-height="860"
     inkscape:window-x="0"
     inkscape:window-y="0"
     inkscape:window-maximized="0"
     units="mm" />
  <metadata
     id="metadata5">
    <rdf:RDF>
      <cc:Work
         rdf:about="">
        <dc:format>image/svg+xml</dc:format>
        <dc:type
           rdf:resource="http://purl.org/dc/dcmitype/StillImage" />
        <dc:title />
      </cc:Work>
    </rdf:RDF>
  </metadata>
  <g
     inkscape:label="Warstwa 1"
     inkscape:groupmode="layer"
     id="layer1">
    <g
       aria-label="COVER "
       transform="scale(0.89684255,1.1150229)"
       id="text12"
       style="font-style:normal;font-variant:normal;font-weight:normal;font-stretch:normal;font-size:33.1796px;line-height:0;font-family:'Palatino Linotype';-inkscape-font-specification:'Palatino Linotype';fill:#000000;fill-opacity:1;stroke:none;stroke-width:0.829485">
      <path
         id="path148"
         style="font-style:normal;font-variant:normal;font-weight:normal;font-stretch:normal;line-height:1.25;font-family:'Palatino Linotype';-inkscape-font-specification:'Palatino Linotype';text-align:center;text-anchor:middle;stroke-width:0.829485"
         d="m 94.527541,0.81621281 0.129608,-0.11340684 q 2.964779,0.12960781 4.617278,0.12960781 1.830713,0 4.941303,-0.11340683 1.15026,-0.032402 1.6687,-0.032402 4.09884,0 5.55693,1.49048985 1.45809,1.4904899 1.45809,3.5318129 0,1.360882 -0.71284,2.6731611 -0.71285,1.3122791 -2.10613,2.2519362 -1.39329,0.923455 -3.83963,1.393284 0.45362,0.631838 1.6363,2.187131 l 2.30053,3.045784 q 1.11787,1.506691 2.39775,3.191592 1.27988,1.668701 1.6525,1.895515 0.37262,0.210612 0.63184,0.259215 0.27541,0.0486 0.85865,0.0486 l 0.12961,0.129608 v 0.761446 l -0.14581,0.145809 q -0.77765,-0.09721 -1.84691,-0.09721 -1.15027,0 -2.51116,0.09721 -1.11786,-1.360882 -3.51561,-4.714485 -2.78657,-3.888234 -5.70274,-7.209434 l 0.16201,-0.50223 q 0.84245,0.0486 1.31228,0.0486 2.80277,0 4.39046,-1.3446815 1.5877,-1.344681 1.5877,-3.7262246 0,-2.1385289 -1.42569,-3.2239943 -1.42568,-1.1016664 -3.85583,-1.1016664 -1.7011,0 -3.20779,0.4698283 -0.24302,0.3564215 -0.24302,6.0753662 V 15.96412 l 0.0162,3.15919 q 0.0162,1.830711 0.0972,2.365343 0.081,0.534632 0.22681,0.712843 0.16201,0.17821 0.59944,0.307818 0.43742,0.113407 2.15473,0.178211 l 0.12961,0.09721 v 0.810049 l -0.12961,0.129608 q -0.081,0 -2.85137,-0.09721 -1.150273,-0.0324 -1.798312,-0.0324 -0.50223,0 -4.633479,0.129608 l -0.129608,-0.129608 v -0.810049 l 0.129608,-0.09721 q 1.506691,-0.0648 2.008921,-0.16201 0.50223,-0.09721 0.66424,-0.243014 0.178211,-0.16201 0.275417,-0.66424 0.113406,-0.502231 0.129607,-2.235735 l 0.0162,-3.418406 V 8.4630737 l -0.0324,-3.1591904 Q 97.702932,3.456972 97.621928,2.9223397 97.557124,2.3877075 97.395114,2.2094968 97.249305,2.031286 96.811879,1.9178792 96.374452,1.8044724 94.657149,1.7396685 L 94.527541,1.6262616 Z m -19.765195,0 0.129608,-0.11340684 q 5.556935,0.0972059 7.112228,0.0972059 5.313921,0 9.461371,-0.0972059 l 0.081,0.11340684 Q 91.141533,2.3715065 90.947121,5.6927067 l -0.09721,0.1296078 H 90.056068 L 89.910259,5.6927067 q 0.0162,-0.1458088 0.0162,-0.2592156 0,-1.377083 -0.210613,-2.6245582 -1.02066,-0.4536273 -2.83517,-0.5832351 -1.798308,-0.1458088 -2.705563,-0.1458088 -1.279877,0 -3.272597,0.1782107 l -0.0648,2.5921562 -0.0486,2.9647787 -0.0486,3.2887984 q 1.749706,0.09721 3.223994,0.09721 1.49049,0 2.494951,-0.09721 1.00446,-0.09721 1.16647,-0.194412 0.178211,-0.113407 0.259216,-0.405024 0.09721,-0.307819 0.16201,-1.0692647 l 0.0648,-1.0044606 0.129608,-0.1296078 h 0.745245 l 0.129608,0.1296078 q -0.0324,1.7659063 -0.08101,3.5480143 l 0.08101,3.645219 -0.129608,0.129608 H 88.241558 L 88.11195,15.623905 87.998544,14.651847 q -0.145809,-1.134069 -0.210613,-1.344681 -0.0648,-0.226814 -0.307819,-0.388824 -0.226813,-0.16201 -1.198872,-0.259215 -0.972059,-0.09721 -2.673161,-0.09721 -0.939657,0 -2.867573,0.081 -0.081,1.360882 -0.081,4.536273 0,3.402205 0.081,5.006102 h 2.98098 q 3.936837,0 4.925097,-0.09721 0.988259,-0.09721 1.879313,-0.469828 0.145809,-0.372623 0.469828,-1.717304 0.340221,-1.360882 0.388824,-1.701102 l 0.162009,-0.113407 h 0.777647 l 0.129608,0.113407 q -0.145809,0.696642 -0.291617,2.430146 -0.129608,1.733504 -0.129608,2.964779 l -0.113407,0.129608 q -3.094387,-0.09721 -8.100488,-0.09721 l -4.406666,-0.0324 q -1.539093,0 -3.207793,0.129608 l -0.129608,-0.129608 v -0.534633 l 0.129608,-0.162009 q 0.955857,-0.48603 1.085465,-0.599436 0.145809,-0.129608 0.226814,-2.835171 0.09721,-2.721764 0.09721,-4.14745 V 9.3703284 l -0.0162,-3.6776217 q 0,-1.1988722 -0.0324,-1.9441172 -0.0324,-0.7614458 -0.113407,-1.0854654 -0.081,-0.3240195 -0.194412,-0.4536273 Q 77.16009,2.079889 76.917076,1.9988841 76.690262,1.9016782 76.123228,1.8368743 L 74.891954,1.7396685 74.762346,1.6262616 Z m 9.250757,-1.3122791 z M 83.948303,24.566844 Z M 60.764704,23.886403 Q 60.521689,23.17356 58.739582,18.442875 L 53.23125,4.817854 Q 52.291593,2.4849134 52.048578,2.1770948 51.805564,1.8530753 50.104461,1.7396685 L 49.958652,1.5938597 V 0.84861476 l 0.145809,-0.14580879 q 2.47875,0.12960781 4.212254,0.12960781 1.620098,0 4.293259,-0.12960781 l 0.129608,0.12960781 V 1.7234675 l -0.129608,0.1296078 q -1.960318,0 -2.349142,0.1296078 -0.372622,0.1134068 -0.372622,0.4536274 0,0.1944117 0.518431,1.7335044 0.518431,1.5228918 0.923456,2.5759553 L 62.401002,19.560743 66.629457,8.932902 q 0.437427,-1.0854654 1.279877,-3.4994109 0.842451,-2.4139455 0.842451,-2.8999748 0,-0.4050244 -0.405024,-0.5184312 Q 67.957937,1.9016782 65.981418,1.7396685 L 65.835609,1.6100607 V 0.83241378 l 0.145809,-0.12960781 q 2.835171,0.12960781 3.612818,0.12960781 0.631838,0 3.272597,-0.12960781 l 0.129608,0.12960781 V 1.6100607 l -0.129608,0.1296078 q -1.16647,0.048603 -1.409485,0.1782107 -0.243015,0.1296078 -0.437426,0.5022303 -0.178211,0.3726224 -1.15027,2.5597543 L 64.814948,17.422214 q -1.701103,4.163651 -2.413946,6.464189 z m -36.4522,-11.45409 q 0,-2.430147 0.696642,-4.5362735 0.696642,-2.1061269 2.365343,-3.8882343 1.684902,-1.7983084 4.050244,-2.770367 2.365343,-0.98825957 5.346322,-0.98825957 5.524533,0 8.797131,3.01338167 3.272597,2.9971806 3.272597,8.1976937 0,3.661421 -1.603897,6.577597 -1.603897,2.916176 -4.601077,4.536273 -2.98098,1.620098 -6.707204,1.620098 -2.64076,0 -4.860293,-0.874853 -2.219534,-0.891054 -3.791029,-2.640759 -1.555294,-1.749706 -2.268137,-4.050244 -0.696642,-2.300539 -0.696642,-4.196053 z m 3.369804,-1.069265 q 0,1.97652 0.631838,4.260857 0.648039,2.268137 1.911715,3.904436 1.279877,1.620097 2.932377,2.413945 1.6687,0.793848 3.791028,0.793848 2.511151,0 4.47147,-1.150269 1.960318,-1.15027 2.980979,-3.564215 1.020662,-2.430147 1.020662,-5.443528 0,-3.2725975 -1.166471,-5.9133567 -1.16647,-2.6407592 -3.3212,-3.8396314 -2.15473,-1.1988723 -4.779288,-1.1988723 -3.936837,0 -6.204974,2.4625484 -2.268136,2.4625485 -2.268136,7.274238 z m 8.651321,-11.85911429 z m 0.081,25.06291029 z m -13.803226,-3.710023 -0.615637,1.50669 q -3.596617,1.830711 -7.679263,1.830711 -5.8485528,0 -9.5099735,-3.3212 -3.6452197,-3.321201 -3.6452197,-8.683724 0,-3.6938224 1.8145094,-6.4479884 1.8307103,-2.7703669 4.81169,-4.1312489 2.9971808,-1.37708305 6.7234048,-1.37708305 2.15473,0 4.260857,0.45362735 2.106127,0.4536273 3.515612,1.0854654 L 22.40079,1.9340802 Q 22.028168,2.8413349 21.704148,6.4217507 L 21.590741,6.5513585 H 20.829295 L 20.699687,6.4217507 20.537678,3.6675847 Q 19.355006,2.727928 17.670105,2.2094968 16.001404,1.6748646 14.186895,1.6748646 q -2.737965,0 -4.908896,1.1826712 -2.1709308,1.1664703 -3.3698031,3.4022051 -1.1988722,2.2195338 -1.1988722,5.4435281 0,3.240195 1.4094849,5.686543 1.409485,2.446347 3.8396315,3.758626 2.4463469,1.312279 5.7027439,1.312279 1.441887,0 2.770367,-0.275416 1.32848,-0.275417 2.203333,-0.680441 0.891053,-0.405025 1.701102,-0.98826 z" />
    </g>
    <g
       aria-label="HURTOWNIA KSIĄŻEK"
       transform="scale(1.2190493,0.82031138)"
       id="text94"
       style="font-style:normal;font-variant:normal;font-weight:normal;font-stretch:normal;font-size:9.20135px;line-height:1.25;font-family:'Trebuchet MS';-inkscape-font-specification:'Trebuchet MS';fill:#000000;fill-opacity:1;stroke:none;stroke-width:0.230034">
      <path
         id="path60"
         style="font-style:normal;font-variant:normal;font-weight:normal;font-stretch:normal;font-family:'Trebuchet MS';-inkscape-font-specification:'Trebuchet MS';stroke-width:0.230034"
         sodipodi:type="inkscape:offset"
         inkscape:radius="0"
         inkscape:original="M 72.935547 38.845703 C 72.78878 38.845703 72.664337 38.896209 72.5625 38.998047 C 72.460662 39.099885 72.410156 39.224327 72.410156 39.371094 C 72.410156 39.51786 72.460662 39.643214 72.5625 39.748047 C 72.667333 39.849884 72.791776 39.900391 72.935547 39.900391 C 73.082313 39.900391 73.206756 39.849884 73.308594 39.748047 C 73.413427 39.643214 73.464844 39.51786 73.464844 39.371094 C 73.464844 39.227322 73.413427 39.103791 73.308594 39.001953 C 73.206756 38.89712 73.082313 38.845703 72.935547 38.845703 z M 25.849609 40.322266 C 25.037901 40.322266 24.393299 40.644177 23.914062 41.285156 C 23.437821 41.926136 23.199219 42.721344 23.199219 43.673828 C 23.199219 44.686216 23.433135 45.517092 23.900391 46.164062 C 24.370642 46.811033 25.01993 47.134766 25.849609 47.134766 C 26.760159 47.134766 27.460996 46.827824 27.949219 46.216797 C 28.437441 45.602774 28.679688 44.755106 28.679688 43.673828 C 28.679688 42.619507 28.437441 41.799045 27.949219 41.208984 C 27.463991 40.618924 26.763155 40.322266 25.849609 40.322266 z M 60.521484 40.328125 C 59.976352 40.328125 59.529087 40.489015 59.181641 40.8125 C 58.834194 41.135985 58.662109 41.543938 58.662109 42.035156 C 58.662109 42.439512 58.749063 42.784724 58.925781 43.072266 C 59.105495 43.359808 59.419856 43.608693 59.869141 43.818359 L 60.400391 44.066406 C 60.876632 44.291049 61.172249 44.497758 61.289062 44.689453 C 61.408872 44.878152 61.46875 45.08304 61.46875 45.304688 C 61.46875 45.601215 61.363052 45.845415 61.150391 46.037109 C 60.937729 46.228804 60.657083 46.326172 60.306641 46.326172 C 60.108955 46.326172 59.884412 46.285949 59.632812 46.205078 C 59.384208 46.121212 59.175546 46.017336 59.007812 45.894531 L 58.679688 46.720703 C 59.093029 46.996264 59.591711 47.134766 60.175781 47.134766 C 60.840723 47.134766 61.370254 46.961639 61.765625 46.617188 C 62.163991 46.272736 62.363281 45.853588 62.363281 45.359375 C 62.363281 44.9041 62.272553 44.529861 62.089844 44.236328 C 61.91013 43.9398 61.595769 43.685318 61.146484 43.472656 L 60.607422 43.216797 C 60.259975 43.049064 60.027881 42.919024 59.914062 42.826172 C 59.803239 42.733319 59.717197 42.618249 59.654297 42.480469 C 59.591397 42.342689 59.560547 42.189218 59.560547 42.021484 C 59.560547 41.748918 59.646589 41.525286 59.820312 41.351562 C 59.997031 41.177839 60.237455 41.091797 60.542969 41.091797 C 60.752635 41.091797 60.980953 41.132019 61.226562 41.212891 C 61.472171 41.293762 61.655581 41.377982 61.775391 41.464844 L 62.039062 40.681641 C 61.754515 40.445017 61.249325 40.328125 60.521484 40.328125 z M 48.003906 40.349609 L 45.332031 47.021484 L 46.337891 47.021484 L 46.822266 45.632812 L 49.271484 45.632812 L 49.724609 47.021484 L 50.722656 47.021484 L 48.242188 40.349609 L 48.003906 40.349609 z M 67.980469 40.349609 L 65.306641 47.021484 L 66.3125 47.021484 L 66.798828 45.632812 L 69.246094 45.632812 L 69.615234 46.755859 C 69.369626 46.968521 69.246094 47.245524 69.246094 47.583984 C 69.246094 47.91346 69.361164 48.180048 69.591797 48.386719 C 69.825425 48.593389 70.118308 48.697266 70.46875 48.697266 C 70.714359 48.697266 70.980036 48.645848 71.267578 48.541016 L 70.966797 47.902344 C 70.80805 47.995196 70.64807 48.041016 70.486328 48.041016 C 70.354537 48.041016 70.238556 48.000793 70.136719 47.919922 C 70.037876 47.839051 69.988281 47.73895 69.988281 47.619141 C 69.988281 47.406479 70.038788 47.253008 70.140625 47.160156 C 70.245458 47.067304 70.334365 47.021484 70.40625 47.021484 L 70.697266 47.021484 L 68.216797 40.349609 L 67.980469 40.349609 z M 15.390625 40.373047 C 15.19294 40.373047 14.877668 40.384243 14.443359 40.408203 C 14.012045 40.42917 13.77904 40.439453 13.746094 40.439453 L 13.746094 47.021484 L 14.644531 47.021484 L 14.644531 44.150391 C 15.07884 44.180344 15.396976 44.195313 15.597656 44.195312 L 17.353516 47.021484 L 18.382812 47.021484 L 16.472656 43.994141 C 16.823098 43.913269 17.126265 43.708382 17.380859 43.378906 C 17.635454 43.046436 17.763672 42.673108 17.763672 42.259766 C 17.763672 41.001768 16.972107 40.373047 15.390625 40.373047 z M 1.7148438 40.439453 L 1.7148438 47.021484 L 2.6132812 47.021484 L 2.6132812 43.841797 L 5.4882812 43.841797 L 5.4882812 47.021484 L 6.3867188 47.021484 L 6.3867188 40.439453 L 5.4882812 40.439453 L 5.4882812 43.076172 L 2.6132812 43.076172 L 2.6132812 40.439453 L 1.7148438 40.439453 z M 7.734375 40.439453 L 7.734375 45.013672 C 7.734375 45.696585 7.9336654 46.22052 8.3320312 46.585938 C 8.730397 46.951356 9.2983295 47.134766 10.035156 47.134766 C 10.751017 47.134766 11.315174 46.947581 11.728516 46.576172 C 12.144853 46.201768 12.353516 45.682519 12.353516 45.017578 L 12.353516 40.439453 L 11.455078 40.439453 L 11.455078 44.923828 C 11.455078 45.355141 11.32686 45.695666 11.072266 45.947266 C 10.817671 46.198865 10.468685 46.326172 10.025391 46.326172 C 9.6060586 46.326172 9.2702196 46.197042 9.015625 45.939453 C 8.7610303 45.678868 8.6328125 45.346674 8.6328125 44.945312 L 8.6328125 40.439453 L 7.734375 40.439453 z M 18.085938 40.439453 L 18.085938 41.248047 L 20.179688 41.248047 L 20.179688 47.021484 L 21.078125 47.021484 L 21.078125 41.248047 L 23.267578 41.248047 L 23.267578 40.439453 L 18.085938 40.439453 z M 29.097656 40.439453 L 31.173828 47.111328 L 31.457031 47.111328 L 32.921875 42.574219 L 34.490234 47.111328 L 34.773438 47.111328 L 36.822266 40.439453 L 35.886719 40.439453 L 34.542969 45.027344 L 33.115234 40.439453 L 32.800781 40.439453 L 31.353516 45.035156 L 30.033203 40.439453 L 29.097656 40.439453 z M 37.554688 40.439453 L 37.554688 47.021484 L 38.408203 47.021484 L 38.408203 42.300781 L 41.808594 47.111328 L 42.078125 47.111328 L 42.078125 40.439453 L 41.224609 40.439453 L 41.224609 44.990234 L 37.914062 40.439453 L 37.554688 40.439453 z M 43.583984 40.439453 L 43.583984 47.021484 L 44.482422 47.021484 L 44.482422 40.439453 L 43.583984 40.439453 z M 53.679688 40.439453 L 53.679688 47.021484 L 54.578125 47.021484 L 54.578125 45.238281 L 55.453125 43.994141 L 57.308594 47.021484 L 58.302734 47.021484 L 56.054688 43.292969 L 58.023438 40.439453 L 57.021484 40.439453 L 54.578125 44.021484 L 54.578125 40.439453 L 53.679688 40.439453 z M 63.558594 40.439453 L 63.558594 47.021484 L 64.457031 47.021484 L 64.457031 40.439453 L 63.558594 40.439453 z M 71.208984 40.439453 L 71.208984 41.248047 L 73.996094 41.248047 L 71.164062 46.796875 L 71.164062 47.021484 L 75.330078 47.021484 L 75.330078 46.212891 L 72.390625 46.212891 L 75.230469 40.664062 L 75.230469 40.439453 L 71.208984 40.439453 z M 76.453125 40.439453 L 76.453125 47.021484 L 80.333984 47.021484 L 80.333984 46.212891 L 77.351562 46.212891 L 77.351562 43.841797 L 79.525391 43.841797 L 79.525391 43.076172 L 77.351562 43.076172 L 77.351562 41.248047 L 80.384766 41.248047 L 80.384766 40.439453 L 76.453125 40.439453 z M 81.380859 40.439453 L 81.380859 47.021484 L 82.28125 47.021484 L 82.28125 45.238281 L 83.15625 43.994141 L 85.011719 47.021484 L 86.003906 47.021484 L 83.757812 43.292969 L 85.726562 40.439453 L 84.724609 40.439453 L 82.28125 44.021484 L 82.28125 40.439453 L 81.380859 40.439453 z M 25.849609 41.130859 C 27.107606 41.130859 27.736328 41.978527 27.736328 43.673828 C 27.736328 44.512493 27.575438 45.164646 27.251953 45.628906 C 26.931463 46.093167 26.463631 46.326172 25.849609 46.326172 C 25.307472 46.326172 24.887413 46.0726 24.587891 45.566406 C 24.291363 45.060212 24.142578 44.428626 24.142578 43.673828 C 24.142578 42.889077 24.287588 42.269728 24.578125 41.814453 C 24.868662 41.359178 25.292496 41.130859 25.849609 41.130859 z M 15.175781 41.203125 C 15.744875 41.203125 16.160247 41.28357 16.423828 41.445312 C 16.687408 41.607054 16.820312 41.873773 16.820312 42.242188 C 16.820313 42.688477 16.696781 42.998152 16.451172 43.171875 C 16.205563 43.345598 15.812579 43.431641 15.273438 43.431641 C 15.069761 43.431641 14.860188 43.416672 14.644531 43.386719 L 14.644531 41.248047 C 14.908112 41.218094 15.085925 41.203125 15.175781 41.203125 z M 48.080078 42.076172 L 49.015625 44.972656 L 47.060547 44.972656 L 48.080078 42.076172 z M 68.056641 42.076172 L 68.990234 44.972656 L 67.035156 44.972656 L 68.056641 42.076172 z "
         d="m 72.935547,38.845703 c -0.146767,0 -0.27121,0.05051 -0.373047,0.152344 -0.101838,0.101838 -0.152344,0.22628 -0.152344,0.373047 0,0.146766 0.05051,0.27212 0.152344,0.376953 0.104833,0.101837 0.229276,0.152344 0.373047,0.152344 0.146766,0 0.271209,-0.05051 0.373047,-0.152344 0.104833,-0.104833 0.15625,-0.230187 0.15625,-0.376953 0,-0.143772 -0.05142,-0.267303 -0.15625,-0.369141 -0.101838,-0.104833 -0.226281,-0.15625 -0.373047,-0.15625 z m -47.085938,1.476563 c -0.811708,0 -1.45631,0.321911 -1.935547,0.96289 -0.476241,0.64098 -0.714843,1.436188 -0.714843,2.388672 0,1.012388 0.233916,1.843264 0.701172,2.490234 0.470251,0.646971 1.119539,0.970704 1.949218,0.970704 0.91055,0 1.611387,-0.306942 2.09961,-0.917969 0.488222,-0.614023 0.730469,-1.461691 0.730469,-2.542969 0,-1.054321 -0.242247,-1.874783 -0.730469,-2.464844 -0.485228,-0.59006 -1.186064,-0.886718 -2.09961,-0.886718 z m 34.671875,0.0059 c -0.545132,0 -0.992397,0.16089 -1.339843,0.484375 -0.347447,0.323485 -0.519532,0.731438 -0.519532,1.222656 0,0.404356 0.08695,0.749568 0.263672,1.03711 0.179714,0.287542 0.494075,0.536427 0.94336,0.746093 l 0.53125,0.248047 c 0.476241,0.224643 0.771858,0.431352 0.888671,0.623047 0.11981,0.188699 0.179688,0.393587 0.179688,0.615235 0,0.296527 -0.105698,0.540727 -0.318359,0.732421 -0.212662,0.191695 -0.493308,0.289063 -0.84375,0.289063 -0.197686,0 -0.422229,-0.04022 -0.673829,-0.121094 -0.248604,-0.08387 -0.457266,-0.187742 -0.625,-0.310547 l -0.328124,0.826172 c 0.413341,0.275561 0.912023,0.414063 1.496093,0.414063 0.664942,0 1.194473,-0.173127 1.589844,-0.517578 0.398366,-0.344452 0.597656,-0.7636 0.597656,-1.257813 0,-0.455275 -0.09073,-0.829514 -0.273437,-1.123047 -0.179714,-0.296528 -0.494075,-0.55101 -0.94336,-0.763672 l -0.539062,-0.255859 c -0.347447,-0.167733 -0.579541,-0.297773 -0.69336,-0.390625 -0.110823,-0.09285 -0.196865,-0.207923 -0.259765,-0.345703 -0.0629,-0.13778 -0.09375,-0.291251 -0.09375,-0.458985 0,-0.272566 0.08604,-0.496198 0.259765,-0.669922 0.176719,-0.173723 0.417143,-0.259765 0.722657,-0.259765 0.209666,0 0.437984,0.04022 0.683593,0.121094 0.245609,0.08087 0.429019,0.165091 0.548829,0.251953 l 0.263671,-0.783203 c -0.284547,-0.236624 -0.789737,-0.353516 -1.517578,-0.353516 z m -12.517578,0.02148 -2.671875,6.671875 h 1.00586 l 0.484375,-1.388672 h 2.449218 l 0.453125,1.388672 h 0.998047 l -2.480468,-6.671875 z m 19.976563,0 -2.673828,6.671875 H 66.3125 l 0.486328,-1.388672 h 2.447266 l 0.36914,1.123047 c -0.245608,0.212662 -0.36914,0.489665 -0.36914,0.828125 0,0.329476 0.11507,0.596064 0.345703,0.802735 0.233628,0.20667 0.526511,0.310547 0.876953,0.310547 0.245609,0 0.511286,-0.05142 0.798828,-0.15625 l -0.300781,-0.638672 c -0.158747,0.09285 -0.318727,0.138672 -0.480469,0.138672 -0.131791,0 -0.247772,-0.04022 -0.349609,-0.121094 -0.09884,-0.08087 -0.148438,-0.180972 -0.148438,-0.300781 0,-0.212662 0.05051,-0.366133 0.152344,-0.458985 0.104833,-0.09285 0.19374,-0.138672 0.265625,-0.138672 h 0.291016 l -2.480469,-6.671875 z m -52.589844,0.02344 c -0.197685,0 -0.512957,0.0112 -0.947266,0.03516 -0.431314,0.02097 -0.664319,0.03125 -0.697265,0.03125 v 6.582031 h 0.898437 v -2.871093 c 0.434309,0.02995 0.752445,0.04492 0.953125,0.04492 l 1.75586,2.826172 h 1.029296 l -1.910156,-3.027343 c 0.350442,-0.08087 0.653609,-0.285759 0.908203,-0.615235 0.254595,-0.33247 0.382813,-0.705798 0.382813,-1.11914 0,-1.257998 -0.791565,-1.886719 -2.373047,-1.886719 z m -13.6757812,0.06641 v 6.582031 h 0.8984374 v -3.179687 h 2.875 v 3.179687 H 6.3867188 V 40.439453 H 5.4882812 v 2.636719 h -2.875 v -2.636719 z m 6.0195312,0 v 4.574219 c 0,0.682913 0.1992904,1.206848 0.5976562,1.572266 0.3983658,0.365418 0.9662983,0.548828 1.7031248,0.548828 0.715861,0 1.280018,-0.187185 1.69336,-0.558594 0.416337,-0.374404 0.625,-0.893653 0.625,-1.558594 v -4.578125 h -0.898438 v 4.484375 c 0,0.431313 -0.128218,0.771838 -0.382812,1.023438 -0.254595,0.251599 -0.603581,0.378906 -1.046875,0.378906 -0.4193324,0 -0.7551714,-0.12913 -1.009766,-0.386719 C 8.7610303,45.678868 8.6328125,45.346674 8.6328125,44.945312 v -4.505859 z m 10.351563,0 v 0.808594 h 2.09375 v 5.773437 h 0.898437 v -5.773437 h 2.189453 v -0.808594 z m 11.011718,0 2.076172,6.671875 h 0.283203 l 1.464844,-4.537109 1.568359,4.537109 h 0.283204 l 2.048828,-6.671875 h -0.935547 l -1.34375,4.587891 -1.427735,-4.587891 h -0.314453 l -1.447265,4.595703 -1.320313,-4.595703 z m 8.457032,0 v 6.582031 h 0.853515 v -4.720703 l 3.400391,4.810547 h 0.269531 v -6.671875 h -0.853516 v 4.550781 l -3.310547,-4.550781 z m 6.029296,0 v 6.582031 h 0.898438 v -6.582031 z m 10.095704,0 v 6.582031 h 0.898437 v -1.783203 l 0.875,-1.24414 1.855469,3.027343 h 0.99414 l -2.248046,-3.728515 1.96875,-2.853516 h -1.001954 l -2.443359,3.582031 v -3.582031 z m 9.878906,0 v 6.582031 h 0.898437 v -6.582031 z m 7.65039,0 v 0.808594 h 2.78711 l -2.832032,5.548828 v 0.224609 h 4.166016 v -0.808593 h -2.939453 l 2.839844,-5.548829 v -0.224609 z m 5.244141,0 v 6.582031 h 3.880859 v -0.808593 h -2.982422 v -2.371094 h 2.173829 v -0.765625 h -2.173829 v -1.828125 h 3.033204 v -0.808594 z m 4.927734,0 v 6.582031 h 0.900391 v -1.783203 l 0.875,-1.24414 1.855469,3.027343 h 0.992187 l -2.246094,-3.728515 1.96875,-2.853516 h -1.001953 l -2.443359,3.582031 v -3.582031 z m -55.53125,0.691406 c 1.257997,0 1.886719,0.847668 1.886719,2.542969 0,0.838665 -0.16089,1.490818 -0.484375,1.955078 -0.32049,0.464261 -0.788322,0.697266 -1.402344,0.697266 -0.542137,0 -0.962196,-0.253572 -1.261718,-0.759766 -0.296528,-0.506194 -0.445313,-1.13778 -0.445313,-1.892578 0,-0.784751 0.14501,-1.4041 0.435547,-1.859375 0.290537,-0.455275 0.714371,-0.683594 1.271484,-0.683594 z m -10.673828,0.07227 c 0.569094,0 0.984466,0.08044 1.248047,0.242187 0.26358,0.161742 0.396484,0.428461 0.396484,0.796876 10e-7,0.446289 -0.123531,0.755964 -0.36914,0.929687 -0.245609,0.173723 -0.638593,0.259766 -1.177734,0.259766 -0.203677,0 -0.41325,-0.01497 -0.628907,-0.04492 v -2.138672 c 0.263581,-0.02995 0.441394,-0.04492 0.53125,-0.04492 z m 32.904297,0.873047 0.935547,2.896484 h -1.955078 z m 19.976563,0 0.933593,2.896484 h -1.955078 z" />
    </g>
    <rect
       style="fill:#800000;stroke-width:0.188229"
       id="rect96"
       width="105.83334"
       height="0.95307082"
       x="0.40944684"
       y="29.423073" />
    <text
       xml:space="preserve"
       style="font-style:normal;font-weight:normal;font-size:10.5833px;line-height:1.25;font-family:sans-serif;fill:#000000;fill-opacity:1;stroke:none;stroke-width:0.264583"
       x="88.247734"
       y="37.908958"
       id="text67"><tspan
         sodipodi:role="line"
         id="tspan65"
         x="88.247734"
         y="37.908958"
         style="stroke-width:0.264583"></tspan></text>
  </g>
</svg>
