<?xml version="1.0" encoding="UTF-8" standalone="no"?>
<svg
   xmlns:dc="http://purl.org/dc/elements/1.1/"
   xmlns:cc="http://creativecommons.org/ns#"
   xmlns:rdf="http://www.w3.org/1999/02/22-rdf-syntax-ns#"
   xmlns:svg="http://www.w3.org/2000/svg"
   xmlns="http://www.w3.org/2000/svg"
   xmlns:sodipodi="http://sodipodi.sourceforge.net/DTD/sodipodi-0.dtd"
   xmlns:inkscape="http://www.inkscape.org/namespaces/inkscape"
   width="300"
   height="200"
   version="1.1"
   viewBox="0 0 79.374998 52.916668"
   id="svg142"
   sodipodi:docname="logo-small.svg"
   inkscape:version="1.0.1 (3bc2e813f5, 2020-09-07)">
  <defs
     id="defs146" />
  <sodipodi:namedview
     pagecolor="#ffffff"
     bordercolor="#666666"
     borderopacity="1"
     objecttolerance="10"
     gridtolerance="10"
     guidetolerance="10"
     inkscape:pageopacity="0"
     inkscape:pageshadow="2"
     inkscape:window-width="1440"
     inkscape:window-height="837"
     id="namedview144"
     showgrid="false"
     units="px"
     inkscape:zoom="2.2378227"
     inkscape:cx="149.94439"
     inkscape:cy="124.93602"
     inkscape:window-x="-8"
     inkscape:window-y="-8"
     inkscape:window-maximized="1"
     inkscape:current-layer="svg142"
     inkscape:document-rotation="0" />
  <metadata
     id="metadata120">
    <rdf:RDF>
      <cc:Work
         rdf:about="">
        <dc:format>image/svg+xml</dc:format>
        <dc:type
           rdf:resource="http://purl.org/dc/dcmitype/StillImage" />
        <dc:title></dc:title>
      </cc:Work>
    </rdf:RDF>
  </metadata>
  <path
     d="m 26.90847,49.75019 c -0.29104,-0.17111 -0.96722,-0.70132 -1.5026,-1.1783 -1.506,-1.3416 -2.2056,-1.4281 -11.594,-1.434 -12.2699997,-0.008 -10.8509997,2.7476 -10.8329997,-21.032 0.0189,-24.0969995 -1.4711,-21.3439995 11.4939997,-21.2389995 10.216,0.0826 10.819,0.19552 12.685,2.3761 l 0.8882,1.0377 0.71421,-0.93637 c 0.39401,-0.51658 1.3844,-1.2655 2.2091,-1.6705 l 1.4949,-0.73414 15.081,-0.26458 2.9562,-1.6536 c 4.3098,-2.4108 3.319,-2.656 14.714,3.6419 12.4,6.8532995 12.605,7.1099995 7.7957,9.7538995 l -2.0505,1.1272 v 2.839 c 0,3.0196 -0.16349,3.474 -1.2501,3.474 -1.1696,0 -1.7183,-7.0432 -0.60199,-7.7269 0.21828,-0.13369 1.3145,-0.74422 2.436,-1.3567 l 2.0391,-1.1137 -9.4652,-5.2200995 c -5.2058,-2.871 -9.5507,-5.2201 -9.6553,-5.2201 -0.48281,0 -18.962,10.4169995 -18.773,10.5829995 0.34272,0.30214 18.613,10.32 18.815,10.317 0.10107,-0.002 2.6746,-1.3641 5.719,-3.0279 6.974,-3.8114 6.5033,-3.9408 6.5033,1.7874 0,6.5098 -2.8525,9.3004 -10.143,9.9225 -9.4056,0.80262 -14.46,-2.459 -14.468,-9.3365 l -0.004,-3.7083 -4.2545,-2.3588 c -6.4916,-3.5991 -6.473,-3.8539 0.56487,-7.7576995 l 4.8891,-2.7119 -5.0271,0.004 c -6.2191,0.005 -7.8462,0.60271 -8.8467,3.2505995 -0.56154,1.4862 -0.37535,37.125 0.19127,36.613 1.6805,-1.5208 2.4488,-1.6312 12.012,-1.7256 l 8.9129,-0.0879 0.083,-4.5876 c 0.0887,-4.9068 0.10121,-4.961 1.1413,-4.961 1.03,0 1.0518,0.0809 1.145,4.2517 0.10721,4.7958 -0.0421,5.8842 -0.92923,6.7712 l -0.68484,0.68483 -8.7613,0.002 c -9.7616,0.002 -10.235,0.0652 -12.082,1.6229 -1.3326,1.1236 -2.686,1.4984 -3.5586,0.98542 z m -0.008,-38.548 c -0.18961,-1.3359995 -1.6117,-3.0935995 -2.9597,-3.6578995 -0.6565,-0.27483 -2.8824,-0.35642 -9.7234,-0.35642 H 5.3453703 V 44.98087 l 9.0619997,0.0925 c 9.7116,0.0991 9.9855,0.13525 11.789,1.5543 l 0.71213,0.5602 0.0771,-17.42 c 0.0424,-9.5812 0.004,-17.936 -0.0854,-18.565 z m 31.758,19.093 c 4.8836,-1.2364 5.9531,-2.3686 5.9531,-6.3019 v -3.0904 l -0.8599,0.51614 c -8.788,5.2748 -8.9483,5.2958 -15.015,1.9614 l -4.3656,-2.3994 -0.0751,2.9257 c -0.14216,5.5368 6.3394,8.4198 14.363,6.3885 z m 10.471,0.59656 c -0.49861,-0.60079 -0.25812,-3.8707 0.31097,-4.2282 1.1085,-0.69634 1.9635,1.7453 1.3989,3.9949 -0.17535,0.69865 -1.2068,0.83937 -1.7098,0.23328 z"
     fill="#8d0a0a"
     id="path138"
     style="stroke-width:0.26458" />
</svg>
