<?xml version="1.0" encoding="UTF-8" standalone="no"?>
<svg
   xmlns:dc="http://purl.org/dc/elements/1.1/"
   xmlns:cc="http://creativecommons.org/ns#"
   xmlns:rdf="http://www.w3.org/1999/02/22-rdf-syntax-ns#"
   xmlns:svg="http://www.w3.org/2000/svg"
   xmlns="http://www.w3.org/2000/svg"
   xmlns:sodipodi="http://sodipodi.sourceforge.net/DTD/sodipodi-0.dtd"
   xmlns:inkscape="http://www.inkscape.org/namespaces/inkscape"
   width="500"
   height="200"
   version="1.1"
   viewBox="0 0 132.29167 52.916668"
   id="svg60"
   sodipodi:docname="logo-wbgl-d.svg"
   inkscape:version="1.0.1 (3bc2e813f5, 2020-09-07)">
  <defs
     id="defs64" />
  <sodipodi:namedview
     pagecolor="#ffffff"
     bordercolor="#666666"
     borderopacity="1"
     objecttolerance="10"
     gridtolerance="10"
     guidetolerance="10"
     inkscape:pageopacity="0"
     inkscape:pageshadow="2"
     inkscape:window-width="1920"
     inkscape:window-height="1017"
     id="namedview62"
     showgrid="false"
     inkscape:zoom="2.2378226"
     inkscape:cx="242.00689"
     inkscape:cy="129.29837"
     inkscape:window-x="-8"
     inkscape:window-y="-8"
     inkscape:window-maximized="1"
     inkscape:current-layer="svg60"
     inkscape:document-rotation="0"
     units="px" />
  <metadata
     id="metadata38">
    <rdf:RDF>
      <cc:Work
         rdf:about="">
        <dc:format>image/svg+xml</dc:format>
        <dc:type
           rdf:resource="http://purl.org/dc/dcmitype/StillImage" />
        <dc:title />
      </cc:Work>
    </rdf:RDF>
  </metadata>
  <g
     aria-label="COVER
"
     transform="scale(0.70168904,1.4251327)"
     id="text12"
     style="font-style:normal;font-variant:normal;font-weight:normal;font-stretch:normal;font-size:30.6267px;line-height:0;font-family:'Palatino Linotype';-inkscape-font-specification:'Palatino Linotype';fill:#ffffff;fill-opacity:1;stroke:none;stroke-width:0.765667">
    <path
       id="path196"
       style="font-style:normal;font-variant:normal;font-weight:normal;font-stretch:normal;line-height:1.25;font-family:'Palatino Linotype';-inkscape-font-specification:'Palatino Linotype';text-align:center;text-anchor:middle;fill:#ffffff;stroke-width:0.765667"
       sodipodi:type="inkscape:offset"
       inkscape:radius="0"
       inkscape:original="M 93.179688 2.2597656 C 90.886673 2.2597656 88.817038 2.6838315 86.972656 3.53125 C 85.138245 4.3686988 83.657818 5.6389435 82.53125 7.34375 C 81.414651 9.0385869 80.855469 11.0238 80.855469 13.296875 C 80.855469 16.596822 81.977536 19.268727 84.220703 21.3125 C 86.473839 23.356274 89.400964 24.376953 93 24.376953 C 95.512347 24.376953 97.874637 23.814068 100.08789 22.6875 L 100.65625 21.296875 L 100.40234 20.982422 C 99.903861 21.341329 99.380361 21.645291 98.832031 21.894531 C 98.293671 22.143772 97.614385 22.353954 96.796875 22.523438 C 95.979366 22.692921 95.127531 22.777344 94.240234 22.777344 C 92.236339 22.777344 90.481976 22.373946 88.976562 21.566406 C 87.481118 20.758866 86.298998 19.60307 85.431641 18.097656 C 84.564283 16.592242 84.130859 14.841582 84.130859 12.847656 C 84.130859 10.8637 84.500529 9.1881048 85.238281 7.8222656 C 85.976034 6.4464569 87.011726 5.401407 88.347656 4.6835938 C 89.683586 3.9558108 91.194039 3.5917969 92.878906 3.5917969 C 93.995505 3.5917969 95.068831 3.7549866 96.095703 4.0839844 C 97.132544 4.4030124 98.014405 4.851449 98.742188 5.4296875 L 98.890625 7.9726562 L 99.011719 8.0917969 L 99.714844 8.0917969 L 99.818359 7.9726562 C 100.01775 5.7693682 100.23163 4.3883773 100.46094 3.8300781 L 100.35742 3.6816406 C 99.490067 3.2928251 98.407379 2.9588371 97.111328 2.6796875 C 95.815276 2.4005379 94.505648 2.2597656 93.179688 2.2597656 z M 113.72656 2.2753906 C 111.89215 2.2753906 110.24658 2.5793526 108.79102 3.1875 C 107.33545 3.7856777 106.08957 4.6375119 105.05273 5.7441406 C 104.02586 6.8407998 103.29783 8.0379326 102.86914 9.3339844 C 102.44045 10.630036 102.22656 12.02604 102.22656 13.521484 C 102.22656 14.68793 102.44045 15.978844 102.86914 17.394531 C 103.30781 18.810219 104.00581 20.056092 104.96289 21.132812 C 105.92994 22.209532 107.09705 23.021983 108.46289 23.570312 C 109.82873 24.108673 111.32417 24.376953 112.94922 24.376953 C 115.24223 24.376953 117.30621 23.879775 119.14062 22.882812 C 120.98501 21.88585 122.39973 20.489846 123.38672 18.695312 C 124.37371 16.900779 124.86719 14.876183 124.86719 12.623047 C 124.86719 9.422796 123.85957 6.9010219 121.8457 5.0566406 C 119.83184 3.2022896 117.1262 2.2753906 113.72656 2.2753906 z M 177.52148 2.6796875 C 177.20246 2.6796875 176.69027 2.689045 175.98242 2.7089844 C 174.06826 2.7787718 172.54649 2.8125 171.41992 2.8125 C 170.40302 2.8125 168.98265 2.7731164 167.1582 2.6933594 L 167.03906 2.7988281 L 167.03906 3.546875 L 167.1582 3.6503906 C 168.21498 3.6902692 168.8773 3.7446657 169.14648 3.8144531 C 169.41566 3.8842405 169.59582 3.9743184 169.68555 4.0839844 C 169.78526 4.1936502 169.85466 4.4131897 169.89453 4.7421875 C 169.94433 5.0711852 169.97438 5.8048686 169.98438 6.9414062 L 170.01367 9.8574219 L 170.01367 16.78125 L 170 19.935547 C 169.99003 21.002297 169.95065 21.690941 169.88086 22 C 169.82104 22.309059 169.73466 22.513585 169.625 22.613281 C 169.5253 22.703006 169.32273 22.778071 169.01367 22.837891 C 168.70462 22.897707 168.08538 22.946448 167.1582 22.986328 L 167.03906 23.076172 L 167.03906 23.824219 L 167.1582 23.943359 C 169.70046 23.863603 171.12649 23.824219 171.43555 23.824219 C 171.83433 23.824219 172.38786 23.833576 173.0957 23.853516 C 174.80049 23.913336 175.6767 23.943359 175.72656 23.943359 L 175.84766 23.824219 L 175.84766 23.076172 L 175.72656 22.986328 C 174.66978 22.946449 174.00746 22.892053 173.73828 22.822266 C 173.4691 22.742509 173.28525 22.648729 173.18555 22.539062 C 173.09584 22.429397 173.02643 22.209857 172.97656 21.880859 C 172.92676 21.551862 172.89672 20.823834 172.88672 19.697266 L 172.87109 16.78125 L 172.87109 9.8574219 C 172.87109 6.3381429 172.94616 4.4693319 173.0957 4.25 C 174.02288 3.9608808 175.00983 3.8144531 176.05664 3.8144531 C 177.55208 3.8144531 178.73791 4.1540965 179.61523 4.8320312 C 180.49256 5.4999964 180.93164 6.4926028 180.93164 7.8085938 C 180.93164 9.2741289 180.44382 10.420568 179.4668 11.248047 C 178.48977 12.075526 177.1388 12.488281 175.41406 12.488281 C 175.12494 12.488281 174.71959 12.473266 174.20117 12.443359 L 174.05273 12.908203 C 175.84727 14.951977 177.60163 17.169789 179.31641 19.5625 C 180.79191 21.626213 181.87264 23.076614 182.56055 23.914062 C 183.39799 23.854242 184.17106 23.824219 184.87891 23.824219 C 185.5369 23.824219 186.10544 23.854243 186.58398 23.914062 L 186.71875 23.779297 L 186.71875 23.076172 L 186.59961 22.957031 C 186.2407 22.957031 185.97613 22.942016 185.80664 22.912109 C 185.64713 22.8822 185.45196 22.803433 185.22266 22.673828 C 184.99336 22.534253 184.48487 21.9507 183.69727 20.923828 C 182.90967 19.886987 182.17228 18.903738 181.48438 17.976562 L 179.36133 15.166016 C 178.63354 14.208932 178.13071 13.5353 177.85156 13.146484 C 179.35698 12.857366 180.53714 12.429597 181.39453 11.861328 C 182.25192 11.28309 182.90118 10.58879 183.33984 9.78125 C 183.77851 8.9737101 183.99805 8.1519019 183.99805 7.3144531 C 183.99805 6.0582799 183.54766 4.9718933 182.65039 4.0546875 C 181.75312 3.1374816 180.0438 2.6796875 177.52148 2.6796875 z M 126.0332 2.6933594 L 125.89844 2.828125 L 125.89844 3.515625 L 126.0332 3.6503906 C 127.08002 3.720178 127.67858 3.8552949 127.82812 4.0546875 C 127.97767 4.2441104 128.34168 5.056561 128.91992 6.4921875 L 134.00391 19.068359 C 135.10057 21.979491 135.7235 23.655086 135.87305 24.09375 L 137.38477 24.09375 C 137.82343 22.678063 138.56647 20.689148 139.61328 18.126953 L 144.27734 6.6425781 C 144.87552 5.2966783 145.23018 4.5085983 145.33984 4.2792969 C 145.45948 4.0499954 145.59459 3.8942101 145.74414 3.8144531 C 145.89369 3.7346959 146.32711 3.6802993 147.04492 3.6503906 L 147.16406 3.53125 L 147.16406 2.8125 L 147.04492 2.6933594 C 145.41987 2.7731164 144.41225 2.8125 144.02344 2.8125 C 143.5449 2.8125 142.43414 2.7731164 140.68945 2.6933594 L 140.55469 2.8125 L 140.55469 3.53125 L 140.68945 3.6503906 C 141.90575 3.7500869 142.63377 3.8345095 142.87305 3.9042969 C 143.12229 3.9740843 143.24609 4.1335718 143.24609 4.3828125 C 143.24609 4.6819014 142.98717 5.5750722 142.46875 7.0605469 C 141.95033 8.5460216 141.55629 9.6230504 141.28711 10.291016 L 137.38477 20.101562 L 132.70312 8.2714844 C 132.45388 7.6234585 132.17059 6.8316763 131.85156 5.8945312 C 131.53254 4.9474165 131.37305 4.4126043 131.37305 4.2929688 C 131.37305 4.0836065 131.4875 3.9447874 131.7168 3.875 C 131.95607 3.7952429 132.67844 3.7558594 133.88477 3.7558594 L 134.00391 3.6367188 L 134.00391 2.8125 L 133.88477 2.6933594 C 132.23977 2.7731164 130.91884 2.8125 129.92188 2.8125 C 128.85512 2.8125 127.55856 2.7731164 126.0332 2.6933594 z M 148.91406 2.6933594 L 148.79492 2.7988281 L 148.79492 3.546875 L 148.91406 3.6503906 L 150.05078 3.7402344 C 150.39972 3.7801126 150.64363 3.830807 150.7832 3.890625 C 150.93276 3.9404731 151.03786 4.0042273 151.09766 4.0839844 C 151.16742 4.1637414 151.22748 4.3045136 151.27734 4.5039062 C 151.3272 4.7032988 151.36093 5.0372868 151.38086 5.5058594 C 151.40079 5.9644622 151.41211 6.5610756 151.41211 7.2988281 L 151.42578 10.695312 L 151.42578 16.183594 C 151.42578 17.060921 151.39574 18.336821 151.33594 20.011719 C 151.28609 21.676647 151.21668 22.54915 151.12695 22.628906 C 151.04719 22.698694 150.71321 22.882551 150.125 23.181641 L 150.00586 23.330078 L 150.00586 23.824219 L 150.125 23.943359 C 151.15187 23.863603 152.13882 23.824219 153.08594 23.824219 L 157.1543 23.853516 C 160.23491 23.853516 162.72666 23.883539 164.63086 23.943359 L 164.73633 23.824219 C 164.73633 23.066527 164.77571 22.154641 164.85547 21.087891 C 164.9452 20.02114 165.03527 19.272444 165.125 18.84375 L 165.00586 18.740234 L 164.28711 18.740234 L 164.13672 18.84375 C 164.10681 19.053113 163.98866 19.576614 163.7793 20.414062 C 163.5799 21.241542 163.43543 21.770699 163.3457 22 C 162.79738 22.229299 162.21753 22.373774 161.60938 22.433594 C 161.00123 22.493414 159.48707 22.523437 157.06445 22.523438 L 154.3125 22.523438 C 154.26263 21.536444 154.23828 19.995966 154.23828 17.902344 C 154.23828 15.948297 154.26263 14.552293 154.3125 13.714844 C 155.49889 13.664997 156.38075 13.640625 156.95898 13.640625 C 158.0058 13.640625 158.82955 13.670649 159.42773 13.730469 C 160.02591 13.790286 160.39363 13.869053 160.5332 13.96875 C 160.68276 14.068446 160.77849 14.18855 160.81836 14.328125 C 160.85824 14.45773 160.92199 14.872439 161.01172 15.570312 L 161.11719 16.466797 L 161.23633 16.585938 L 161.92383 16.585938 L 162.04492 16.466797 L 161.96875 13.101562 C 161.99868 12.004903 162.02499 10.912861 162.04492 9.8261719 L 161.92383 9.7070312 L 161.23633 9.7070312 L 161.11719 9.8261719 L 161.05664 10.753906 C 161.01675 11.222478 160.968 11.552764 160.9082 11.742188 C 160.85835 11.921641 160.77764 12.045447 160.66797 12.115234 C 160.56828 12.17505 160.20992 12.235102 159.5918 12.294922 C 158.97368 12.354742 158.20627 12.384766 157.28906 12.384766 C 156.38183 12.384766 155.38922 12.354742 154.3125 12.294922 L 154.35742 9.2597656 L 154.40234 6.5214844 L 154.46289 4.1289062 C 155.68916 4.0192403 156.69482 3.9648438 157.48242 3.9648438 C 158.04072 3.9648438 158.87384 4.0098827 159.98047 4.0996094 C 161.09707 4.1793664 161.96957 4.3595222 162.59766 4.6386719 C 162.72726 5.4063333 162.79102 6.2131285 162.79102 7.0605469 C 162.79102 7.1303343 162.78734 7.2091015 162.77734 7.2988281 L 162.91211 7.4199219 L 163.64453 7.4199219 L 163.73438 7.2988281 C 163.85401 5.2550543 164.03787 3.7559125 164.28711 2.7988281 L 164.21289 2.6933594 C 161.66066 2.7531774 158.74856 2.7832031 155.47852 2.7832031 C 154.52144 2.7832031 152.33365 2.7531774 148.91406 2.6933594 z M 113.1582 3.546875 C 114.77328 3.546875 116.24435 3.9145912 117.57031 4.6523438 C 118.89627 5.3900963 119.91695 6.5722162 120.63477 8.1972656 C 121.35258 9.8223151 121.71094 11.642385 121.71094 13.65625 C 121.71094 15.510601 121.39762 17.184244 120.76953 18.679688 C 120.14144 20.165162 119.2239 21.262859 118.01758 21.970703 C 116.81126 22.678546 115.43592 23.03125 113.89062 23.03125 C 112.5846 23.03125 111.41749 22.787339 110.39062 22.298828 C 109.37372 21.810316 108.47315 21.067275 107.68555 20.070312 C 106.90792 19.06338 106.31871 17.862545 105.91992 16.466797 C 105.53111 15.061079 105.33594 13.749498 105.33594 12.533203 C 105.33594 9.5722236 106.03394 7.3337429 107.42969 5.8183594 C 108.82543 4.3029758 110.73558 3.546875 113.1582 3.546875 z "
       d="m 93.179688,2.2597656 c -2.293015,0 -4.36265,0.4240659 -6.207032,1.2714844 -1.834411,0.8374488 -3.314838,2.1076935 -4.441406,3.8125 -1.116599,1.6948369 -1.675781,3.68005 -1.675781,5.953125 0,3.299947 1.122067,5.971852 3.365234,8.015625 2.253136,2.043774 5.180261,3.064453 8.779297,3.064453 2.512347,0 4.874637,-0.562885 7.08789,-1.689453 l 0.56836,-1.390625 -0.25391,-0.314453 c -0.498479,0.358907 -1.021979,0.662869 -1.570309,0.912109 -0.53836,0.249241 -1.217646,0.459423 -2.035156,0.628907 -0.817509,0.169483 -1.669344,0.253906 -2.556641,0.253906 -2.003895,0 -3.758258,-0.403398 -5.263672,-1.210938 -1.495444,-0.80754 -2.677564,-1.963336 -3.544921,-3.46875 -0.867358,-1.505414 -1.300782,-3.256074 -1.300782,-5.25 0,-1.983956 0.36967,-3.6595512 1.107422,-5.0253904 0.737753,-1.3758087 1.773445,-2.4208586 3.109375,-3.1386718 1.33593,-0.727783 2.846383,-1.0917969 4.53125,-1.0917969 1.116599,0 2.189925,0.1631897 3.216797,0.4921875 1.036841,0.319028 1.918702,0.7674646 2.646485,1.3457031 l 0.148437,2.5429687 0.121094,0.1191407 h 0.703125 l 0.103515,-0.1191407 c 0.199391,-2.203288 0.413271,-3.5842789 0.642581,-4.1425781 L 100.35742,3.6816406 C 99.490067,3.2928251 98.407379,2.9588371 97.111328,2.6796875 95.815276,2.4005379 94.505648,2.2597656 93.179688,2.2597656 Z m 20.546872,0.015625 c -1.83441,0 -3.47998,0.303962 -4.93554,0.9121094 -1.45557,0.5981777 -2.70145,1.4500119 -3.73829,2.5566406 -1.02687,1.0966592 -1.7549,2.293792 -2.18359,3.5898438 -0.42869,1.2960516 -0.64258,2.6920556 -0.64258,4.1874996 0,1.166446 0.21389,2.45736 0.64258,3.873047 0.43867,1.415688 1.13667,2.661561 2.09375,3.738281 0.96705,1.07672 2.13416,1.889171 3.5,2.4375 1.36584,0.538361 2.86128,0.806641 4.48633,0.806641 2.29301,0 4.35699,-0.497178 6.1914,-1.494141 1.84439,-0.996962 3.25911,-2.392966 4.2461,-4.1875 0.98699,-1.794533 1.48047,-3.819129 1.48047,-6.072265 0,-3.200251 -1.00762,-5.7220251 -3.02149,-7.5664064 -2.01386,-1.854351 -4.7195,-2.78125 -8.11914,-2.78125 z m 63.79492,0.4042969 c -0.31902,0 -0.83121,0.00936 -1.53906,0.029297 -1.91416,0.069787 -3.43593,0.1035156 -4.5625,0.1035156 -1.0169,0 -2.43727,-0.039384 -4.26172,-0.1191406 l -0.11914,0.1054687 V 3.546875 l 0.11914,0.1035156 c 1.05678,0.039879 1.7191,0.094275 1.98828,0.1640625 0.26918,0.069787 0.44934,0.1598653 0.53907,0.2695313 0.0997,0.1096658 0.16911,0.3292053 0.20898,0.6582031 0.0498,0.3289977 0.0798,1.0626811 0.0898,2.1992187 l 0.0293,2.9160157 V 16.78125 L 170,19.935547 c -0.01,1.06675 -0.0494,1.755394 -0.11914,2.064453 -0.0598,0.309059 -0.1462,0.513585 -0.25586,0.613281 -0.0997,0.08972 -0.30227,0.16479 -0.61133,0.22461 -0.30905,0.05982 -0.92829,0.108557 -1.85547,0.148437 l -0.11914,0.08984 v 0.748047 l 0.11914,0.11914 c 2.54226,-0.07976 3.96829,-0.11914 4.27735,-0.11914 0.39878,0 0.95231,0.0094 1.66015,0.0293 1.70479,0.05982 2.581,0.08984 2.63086,0.08984 l 0.1211,-0.11914 v -0.748047 l -0.1211,-0.08984 c -1.05678,-0.03988 -1.7191,-0.09427 -1.98828,-0.164062 -0.26918,-0.07976 -0.45303,-0.173537 -0.55273,-0.283204 -0.0897,-0.109665 -0.15912,-0.329205 -0.20899,-0.658203 -0.0498,-0.328997 -0.0798,-1.057025 -0.0898,-2.183593 l -0.0156,-2.916016 V 9.8574219 c 0,-3.519279 0.0751,-5.38809 0.22461,-5.6074219 0.92718,-0.2891192 1.91413,-0.4355469 2.96094,-0.4355469 1.49544,0 2.68127,0.3396434 3.55859,1.0175781 0.87733,0.6679652 1.31641,1.6605716 1.31641,2.9765626 0,1.4655351 -0.48782,2.6119742 -1.46484,3.4394532 -0.97703,0.827479 -2.328,1.240234 -4.05274,1.240234 -0.28912,0 -0.69447,-0.01501 -1.21289,-0.04492 l -0.14844,0.464844 c 1.79454,2.043774 3.5489,4.261586 5.26368,6.654297 1.4755,2.063713 2.55623,3.514114 3.24414,4.351562 0.83744,-0.05982 1.61051,-0.08984 2.31836,-0.08984 0.65799,0 1.22653,0.03002 1.70507,0.08984 l 0.13477,-0.134765 v -0.703125 l -0.11914,-0.119141 c -0.35891,0 -0.62348,-0.01502 -0.79297,-0.04492 -0.15951,-0.02991 -0.35468,-0.108676 -0.58398,-0.238281 -0.2293,-0.139575 -0.73779,-0.723128 -1.52539,-1.75 -0.7876,-1.036841 -1.52499,-2.02009 -2.21289,-2.947266 l -2.12305,-2.810546 c -0.72779,-0.957084 -1.23062,-1.630716 -1.50977,-2.019532 1.50542,-0.289118 2.68558,-0.716887 3.54297,-1.285156 0.85739,-0.578238 1.50665,-1.272538 1.94531,-2.080078 0.43867,-0.8075399 0.65821,-1.6293481 0.65821,-2.4667969 0,-1.2561732 -0.45039,-2.3425598 -1.34766,-3.2597656 -0.89727,-0.9172059 -2.60659,-1.375 -5.12891,-1.375 z m -51.48828,0.013672 -0.13476,0.1347656 v 0.6875 l 0.13476,0.1347656 c 1.04682,0.069787 1.64538,0.2049043 1.79492,0.4042969 0.14955,0.1894229 0.51356,1.0018735 1.0918,2.4375 l 5.08399,12.5761715 c 1.09666,2.911132 1.71959,4.586727 1.86914,5.025391 h 1.51172 c 0.43866,-1.415687 1.1817,-3.404602 2.22851,-5.966797 l 4.66406,-11.4843749 c 0.59818,-1.3458998 0.95284,-2.1339798 1.0625,-2.3632812 0.11964,-0.2293015 0.25475,-0.3850868 0.4043,-0.4648438 0.14955,-0.079757 0.58297,-0.1341538 1.30078,-0.1640625 L 147.16406,3.53125 V 2.8125 l -0.11914,-0.1191406 c -1.62505,0.079757 -2.63267,0.1191406 -3.02148,0.1191406 -0.47854,0 -1.5893,-0.039384 -3.33399,-0.1191406 L 140.55469,2.8125 v 0.71875 l 0.13476,0.1191406 c 1.2163,0.099696 1.94432,0.1841189 2.1836,0.2539063 0.24924,0.069787 0.37304,0.2292749 0.37304,0.4785156 0,0.2990889 -0.25892,1.1922597 -0.77734,2.6777344 -0.51842,1.4854747 -0.91246,2.5625035 -1.18164,3.2304691 l -3.90234,9.810546 -4.68165,-11.8300776 c -0.24924,-0.6480259 -0.53253,-1.4398081 -0.85156,-2.3769532 -0.31902,-0.9471147 -0.47851,-1.4819269 -0.47851,-1.6015624 0,-0.2093623 0.11445,-0.3481814 0.34375,-0.4179688 0.23927,-0.079757 0.96164,-0.1191406 2.16797,-0.1191406 l 0.11914,-0.1191406 V 2.8125 l -0.11914,-0.1191406 c -1.645,0.079757 -2.96593,0.1191406 -3.96289,0.1191406 -1.06676,0 -2.36332,-0.039384 -3.88868,-0.1191406 z m 22.88086,0 -0.11914,0.1054687 V 3.546875 l 0.11914,0.1035156 1.13672,0.089844 c 0.34894,0.039878 0.59285,0.090573 0.73242,0.1503906 0.14956,0.049848 0.25466,0.1136023 0.31446,0.1933594 0.0698,0.079757 0.12982,0.2205292 0.17968,0.4199218 0.0499,0.1993926 0.0836,0.5333806 0.10352,1.0019532 0.0199,0.4586028 0.0312,1.0552162 0.0312,1.7929687 l 0.0137,3.3964839 v 5.488282 c 0,0.877327 -0.03,2.153227 -0.0898,3.828125 -0.0498,1.664928 -0.11926,2.537431 -0.20899,2.617187 -0.0798,0.06979 -0.41374,0.253645 -1.00195,0.552735 l -0.11914,0.148437 v 0.494141 l 0.11914,0.11914 c 1.02687,-0.07976 2.01382,-0.11914 2.96094,-0.11914 l 4.06836,0.0293 c 3.08061,0 5.57236,0.03002 7.47656,0.08984 l 0.10547,-0.11914 c 0,-0.757692 0.0394,-1.669578 0.11914,-2.736328 0.0897,-1.066751 0.1798,-1.815447 0.26953,-2.244141 l -0.11914,-0.103516 h -0.71875 l -0.15039,0.103516 c -0.0299,0.209363 -0.14806,0.732864 -0.35742,1.570312 -0.1994,0.82748 -0.34387,1.356637 -0.4336,1.585938 -0.54832,0.229299 -1.12817,0.373774 -1.73632,0.433594 -0.60815,0.05982 -2.12231,0.08984 -4.54493,0.08984 h -2.75195 c -0.0499,-0.986994 -0.0742,-2.527472 -0.0742,-4.621094 0,-1.954047 0.0243,-3.350051 0.0742,-4.1875 1.18639,-0.04985 2.06825,-0.07422 2.64648,-0.07422 1.04682,0 1.87057,0.03002 2.46875,0.08984 0.59818,0.05982 0.9659,0.138584 1.10547,0.238281 0.14956,0.0997 0.24529,0.2198 0.28516,0.359375 0.0399,0.129605 0.10363,0.544314 0.19336,1.242187 l 0.10547,0.896485 0.11914,0.119141 h 0.6875 l 0.12109,-0.119141 -0.0762,-3.365235 c 0.0299,-1.096659 0.0562,-2.188701 0.0762,-3.2753901 l -0.12109,-0.1191407 h -0.6875 l -0.11914,0.1191407 -0.0606,0.9277341 c -0.0399,0.468572 -0.0886,0.798858 -0.14844,0.988282 -0.0498,0.179453 -0.13056,0.303259 -0.24023,0.373046 -0.0997,0.05982 -0.45805,0.119868 -1.07617,0.179688 -0.61812,0.05982 -1.38553,0.08984 -2.30274,0.08984 -0.90723,0 -1.89984,-0.03002 -2.97656,-0.08984 l 0.0449,-3.0351564 0.0449,-2.7382812 0.0605,-2.3925782 c 1.22627,-0.1096659 2.23193,-0.1640624 3.01953,-0.1640624 0.5583,0 1.39142,0.045039 2.49805,0.1347656 1.1166,0.079757 1.9891,0.2599128 2.61719,0.5390625 0.1296,0.7676614 0.19336,1.5744566 0.19336,2.421875 0,0.069787 -0.004,0.1485546 -0.0137,0.2382812 l 0.13477,0.1210938 h 0.73242 l 0.0898,-0.1210938 c 0.11963,-2.0437738 0.30349,-3.5429156 0.55273,-4.5 l -0.0742,-0.1054687 c -2.55223,0.059818 -5.46433,0.089844 -8.73437,0.089844 -0.95708,0 -3.14487,-0.030026 -6.56446,-0.089844 z M 113.1582,3.546875 c 1.61508,0 3.08615,0.3677162 4.41211,1.1054688 1.32596,0.7377525 2.34664,1.9198724 3.06446,3.5449218 0.71781,1.6250495 1.07617,3.4451194 1.07617,5.4589844 0,1.854351 -0.31332,3.527994 -0.94141,5.023438 -0.62809,1.485474 -1.54563,2.583171 -2.75195,3.291015 -1.20632,0.707843 -2.58166,1.060547 -4.12696,1.060547 -1.30602,0 -2.47313,-0.243911 -3.5,-0.732422 -1.0169,-0.488512 -1.91747,-1.231553 -2.70507,-2.228516 -0.77763,-1.006932 -1.36684,-2.207767 -1.76563,-3.603515 -0.38881,-1.405718 -0.58398,-2.717299 -0.58398,-3.933594 0,-2.9609794 0.698,-5.1994601 2.09375,-6.7148436 1.39574,-1.5153836 3.30589,-2.2714844 5.72851,-2.2714844 z" />
  </g>
  <g
     aria-label="HURTOWNIA KSIĄŻEK"
     transform="scale(0.95378328,1.0484562)"
     id="text94"
     style="font-style:normal;font-variant:normal;font-weight:normal;font-stretch:normal;font-size:8.49338px;line-height:1.25;font-family:'Trebuchet MS';-inkscape-font-specification:'Trebuchet MS';fill:#ffffff;fill-opacity:1;stroke:none;stroke-width:0.212332">
    <path
       id="path230"
       style="font-style:normal;font-variant:normal;font-weight:normal;font-stretch:normal;font-family:'Trebuchet MS';-inkscape-font-specification:'Trebuchet MS';fill:#ffffff;stroke-width:0.212332"
       sodipodi:type="inkscape:offset"
       inkscape:radius="0"
       inkscape:original="M 125.8457 38.185547 C 125.71023 38.185547 125.59596 38.232169 125.50195 38.326172 C 125.40795 38.420174 125.36133 38.534448 125.36133 38.669922 C 125.36133 38.805395 125.40795 38.920811 125.50195 39.017578 C 125.59873 39.11158 125.713 39.160156 125.8457 39.160156 C 125.98118 39.160156 126.09741 39.11158 126.19141 39.017578 C 126.28817 38.920811 126.33594 38.805395 126.33594 38.669922 C 126.33594 38.537213 126.28817 38.42408 126.19141 38.330078 C 126.09741 38.233311 125.98118 38.185547 125.8457 38.185547 z M 82.384766 39.548828 C 81.635512 39.548828 81.04002 39.845839 80.597656 40.4375 C 80.158058 41.029161 79.9375 41.763381 79.9375 42.642578 C 79.9375 43.577071 80.15268 44.342262 80.583984 44.939453 C 81.018054 45.536644 81.618924 45.835938 82.384766 45.835938 C 83.225256 45.835938 83.869654 45.554248 84.320312 44.990234 C 84.77097 44.423456 84.996094 43.640661 84.996094 42.642578 C 84.996094 41.669378 84.77097 40.909894 84.320312 40.365234 C 83.872419 39.820574 83.228021 39.548828 82.384766 39.548828 z M 114.38867 39.552734 C 113.88549 39.552734 113.47306 39.703358 113.15234 40.001953 C 112.83163 40.300549 112.66992 40.675484 112.66992 41.128906 C 112.66992 41.502151 112.7529 41.822473 112.91602 42.087891 C 113.0819 42.353309 113.37239 42.581857 113.78711 42.775391 L 114.27539 43.003906 C 114.71499 43.211264 114.98983 43.403133 115.09766 43.580078 C 115.20824 43.754259 115.26367 43.943845 115.26367 44.148438 C 115.26367 44.42215 115.16504 44.647273 114.96875 44.824219 C 114.77245 45.001164 114.51293 45.089844 114.18945 45.089844 C 114.00698 45.089844 113.79865 45.053164 113.56641 44.978516 C 113.33693 44.901102 113.14506 44.804762 112.99023 44.691406 L 112.6875 45.455078 C 113.06904 45.709437 113.52923 45.835937 114.06836 45.835938 C 114.68214 45.835938 115.17216 45.677324 115.53711 45.359375 C 115.90482 45.041426 116.08789 44.653453 116.08789 44.197266 C 116.08789 43.77702 116.00459 43.433057 115.83594 43.162109 C 115.67005 42.888397 115.37956 42.65333 114.96484 42.457031 L 114.4668 42.220703 C 114.14608 42.065876 113.93318 41.945083 113.82812 41.859375 C 113.72583 41.773667 113.64596 41.666242 113.58789 41.539062 C 113.52982 41.411883 113.5 41.272015 113.5 41.117188 C 113.5 40.865593 113.57987 40.658404 113.74023 40.498047 C 113.90335 40.33769 114.1262 40.257813 114.4082 40.257812 C 114.60174 40.257812 114.81235 40.296445 115.03906 40.371094 C 115.26577 40.445743 115.43433 40.521385 115.54492 40.601562 L 115.78906 39.880859 C 115.52641 39.662442 115.06051 39.552734 114.38867 39.552734 z M 102.83398 39.574219 L 100.36719 45.732422 L 101.29492 45.732422 L 101.74219 44.451172 L 104.00391 44.451172 L 104.42188 45.732422 L 105.34375 45.732422 L 103.05273 39.574219 L 102.83398 39.574219 z M 121.27148 39.574219 L 118.80469 45.732422 L 119.73438 45.732422 L 120.18164 44.451172 L 122.44141 44.451172 L 122.78125 45.488281 C 122.55454 45.684581 122.44141 45.937581 122.44141 46.25 C 122.44141 46.554125 122.54883 46.803371 122.76172 46.994141 C 122.97737 47.18491 123.24683 47.279297 123.57031 47.279297 C 123.79703 47.279297 124.04318 47.231533 124.30859 47.134766 L 124.0293 46.544922 C 123.88277 46.63063 123.73524 46.673828 123.58594 46.673828 C 123.46428 46.673828 123.35767 46.637149 123.26367 46.5625 C 123.17243 46.487851 123.125 46.393794 123.125 46.283203 C 123.125 46.086904 123.17357 45.947036 123.26758 45.861328 C 123.36436 45.77562 123.44539 45.732422 123.51172 45.732422 L 123.78125 45.732422 L 121.49219 39.574219 L 121.27148 39.574219 z M 72.730469 39.59375 C 72.547994 39.59375 72.256361 39.604833 71.855469 39.626953 C 71.457342 39.646306 71.241351 39.65625 71.210938 39.65625 L 71.210938 45.732422 L 72.041016 45.732422 L 72.041016 43.082031 C 72.441908 43.109678 72.734683 43.123047 72.919922 43.123047 L 74.541016 45.732422 L 75.492188 45.732422 L 73.728516 42.9375 C 74.051994 42.862851 74.331401 42.673265 74.566406 42.369141 C 74.801412 42.062251 74.919922 41.717476 74.919922 41.335938 C 74.919922 40.174734 74.190268 39.59375 72.730469 39.59375 z M 60.105469 39.65625 L 60.105469 45.732422 L 60.935547 45.732422 L 60.935547 42.796875 L 63.589844 42.796875 L 63.589844 45.732422 L 64.417969 45.732422 L 64.417969 39.65625 L 63.589844 39.65625 L 63.589844 42.091797 L 60.935547 42.091797 L 60.935547 39.65625 L 60.105469 39.65625 z M 65.662109 39.65625 L 65.662109 43.878906 C 65.662109 44.509274 65.847129 44.992776 66.214844 45.330078 C 66.582558 45.667381 67.106975 45.835937 67.787109 45.835938 C 68.44789 45.835937 68.968071 45.665098 69.349609 45.322266 C 69.733913 44.976669 69.925781 44.496592 69.925781 43.882812 L 69.925781 39.65625 L 69.097656 39.65625 L 69.097656 43.794922 C 69.097656 44.193049 68.979146 44.509947 68.744141 44.742188 C 68.509135 44.974428 68.18653 45.089844 67.777344 45.089844 C 67.390276 45.089844 67.080709 44.970192 66.845703 44.732422 C 66.610698 44.491887 66.492188 44.186886 66.492188 43.816406 L 66.492188 39.65625 L 65.662109 39.65625 z M 75.21875 39.65625 L 75.21875 40.404297 L 77.150391 40.404297 L 77.150391 45.732422 L 77.980469 45.732422 L 77.980469 40.404297 L 80 40.404297 L 80 39.65625 L 75.21875 39.65625 z M 85.382812 39.65625 L 87.298828 45.816406 L 87.560547 45.816406 L 88.912109 41.626953 L 90.359375 45.816406 L 90.621094 45.816406 L 92.511719 39.65625 L 91.648438 39.65625 L 90.408203 43.890625 L 89.089844 39.65625 L 88.800781 39.65625 L 87.464844 43.900391 L 86.246094 39.65625 L 85.382812 39.65625 z M 93.1875 39.65625 L 93.1875 45.732422 L 93.974609 45.732422 L 93.974609 41.373047 L 97.115234 45.816406 L 97.363281 45.816406 L 97.363281 39.65625 L 96.576172 39.65625 L 96.576172 43.857422 L 93.519531 39.65625 L 93.1875 39.65625 z M 98.753906 39.65625 L 98.753906 45.732422 L 99.582031 45.732422 L 99.582031 39.65625 L 98.753906 39.65625 z M 108.07227 39.65625 L 108.07227 45.732422 L 108.90039 45.732422 L 108.90039 44.085938 L 109.70898 42.9375 L 111.42188 45.732422 L 112.33984 45.732422 L 110.26562 42.291016 L 112.08203 39.65625 L 111.15625 39.65625 L 108.90039 42.962891 L 108.90039 39.65625 L 108.07227 39.65625 z M 117.19141 39.65625 L 117.19141 45.732422 L 118.02148 45.732422 L 118.02148 39.65625 L 117.19141 39.65625 z M 124.25391 39.65625 L 124.25391 40.404297 L 126.82422 40.404297 L 124.21289 45.525391 L 124.21289 45.732422 L 128.05664 45.732422 L 128.05664 44.986328 L 125.34375 44.986328 L 127.96484 39.865234 L 127.96484 39.65625 L 124.25391 39.65625 z M 129.09375 39.65625 L 129.09375 45.732422 L 132.67773 45.732422 L 132.67773 44.986328 L 129.92383 44.986328 L 129.92383 42.796875 L 131.92969 42.796875 L 131.92969 42.091797 L 129.92383 42.091797 L 129.92383 40.404297 L 132.72266 40.404297 L 132.72266 39.65625 L 129.09375 39.65625 z M 133.64258 39.65625 L 133.64258 45.732422 L 134.47266 45.732422 L 134.47266 44.085938 L 135.28125 42.9375 L 136.99414 45.732422 L 137.91016 45.732422 L 135.83594 42.291016 L 137.6543 39.65625 L 136.72852 39.65625 L 134.47266 42.962891 L 134.47266 39.65625 L 133.64258 39.65625 z M 82.384766 40.294922 C 83.54597 40.294922 84.126953 41.077717 84.126953 42.642578 C 84.126953 43.416714 83.97633 44.018726 83.677734 44.447266 C 83.381904 44.875805 82.951544 45.089844 82.384766 45.089844 C 81.884342 45.089844 81.495227 44.855918 81.21875 44.388672 C 80.945038 43.921425 80.808594 43.339301 80.808594 42.642578 C 80.808594 41.918208 80.942755 41.346027 81.210938 40.925781 C 81.47912 40.505536 81.870518 40.294922 82.384766 40.294922 z M 72.53125 40.361328 C 73.056557 40.361328 73.440294 40.436639 73.683594 40.585938 C 73.926894 40.735235 74.048828 40.980245 74.048828 41.320312 C 74.048828 41.732263 73.935696 42.017378 73.708984 42.177734 C 73.482273 42.338092 73.118752 42.417969 72.621094 42.417969 C 72.433089 42.417969 72.240079 42.4046 72.041016 42.376953 L 72.041016 40.404297 C 72.284316 40.37665 72.448307 40.361328 72.53125 40.361328 z M 102.9043 41.166016 L 103.76758 43.841797 L 101.96289 43.841797 L 102.9043 41.166016 z M 121.3418 41.166016 L 122.20508 43.841797 L 120.40039 43.841797 L 121.3418 41.166016 z "
       d="m 125.8457,38.185547 c -0.13547,0 -0.24974,0.04662 -0.34375,0.140625 -0.094,0.094 -0.14062,0.208276 -0.14062,0.34375 0,0.135473 0.0466,0.250889 0.14062,0.347656 0.0968,0.094 0.21105,0.142578 0.34375,0.142578 0.13548,0 0.25171,-0.04858 0.34571,-0.142578 0.0968,-0.09677 0.14453,-0.212183 0.14453,-0.347656 0,-0.132709 -0.0478,-0.245842 -0.14453,-0.339844 -0.094,-0.09677 -0.21023,-0.144531 -0.34571,-0.144531 z m -43.460934,1.363281 c -0.749254,0 -1.344746,0.297011 -1.78711,0.888672 -0.439598,0.591661 -0.660156,1.325881 -0.660156,2.205078 0,0.934493 0.21518,1.699684 0.646484,2.296875 0.43407,0.597191 1.03494,0.896485 1.800782,0.896485 0.84049,0 1.484888,-0.28169 1.935546,-0.845704 0.450658,-0.566778 0.675782,-1.349573 0.675782,-2.347656 0,-0.9732 -0.225124,-1.732684 -0.675782,-2.277344 -0.447893,-0.54466 -1.092291,-0.816406 -1.935546,-0.816406 z m 32.003904,0.0039 c -0.50318,0 -0.91561,0.150624 -1.23633,0.449219 -0.32071,0.298596 -0.48242,0.673531 -0.48242,1.126953 0,0.373245 0.083,0.693567 0.2461,0.958985 0.16588,0.265418 0.45637,0.493966 0.87109,0.6875 l 0.48828,0.228515 c 0.4396,0.207358 0.71444,0.399227 0.82227,0.576172 0.11058,0.174181 0.16601,0.363767 0.16601,0.56836 0,0.273712 -0.0986,0.498835 -0.29492,0.675781 -0.1963,0.176945 -0.45582,0.265625 -0.7793,0.265625 -0.18247,0 -0.3908,-0.03668 -0.62304,-0.111328 -0.22948,-0.07741 -0.42135,-0.173754 -0.57618,-0.28711 l -0.30273,0.763672 c 0.38154,0.254359 0.84173,0.380859 1.38086,0.38086 0.61378,0 1.1038,-0.158614 1.46875,-0.476563 0.36771,-0.317949 0.55078,-0.705922 0.55078,-1.162109 0,-0.420246 -0.0833,-0.764209 -0.25195,-1.035157 -0.16589,-0.273712 -0.45638,-0.508779 -0.8711,-0.705078 l -0.49804,-0.236328 c -0.32072,-0.154827 -0.53362,-0.27562 -0.63868,-0.361328 -0.10229,-0.08571 -0.18216,-0.193133 -0.24023,-0.320313 -0.0581,-0.127179 -0.0879,-0.267047 -0.0879,-0.421874 0,-0.251595 0.0799,-0.458784 0.24023,-0.619141 0.16312,-0.160357 0.38597,-0.240234 0.66797,-0.240235 0.19354,0 0.40415,0.03863 0.63086,0.113282 0.22671,0.07465 0.39527,0.150291 0.50586,0.230468 l 0.24414,-0.720703 c -0.26265,-0.218417 -0.72855,-0.328125 -1.40039,-0.328125 z m -11.55469,0.02148 -2.46679,6.158203 h 0.92773 l 0.44727,-1.28125 h 2.26172 l 0.41797,1.28125 h 0.92187 l -2.29102,-6.158203 z m 18.4375,0 -2.46679,6.158203 h 0.92969 l 0.44726,-1.28125 h 2.25977 l 0.33984,1.037109 c -0.22671,0.1963 -0.33984,0.4493 -0.33984,0.761719 0,0.304125 0.10742,0.553371 0.32031,0.744141 0.21565,0.190769 0.48511,0.285156 0.80859,0.285156 0.22672,0 0.47287,-0.04776 0.73828,-0.144531 l -0.27929,-0.589844 c -0.14653,0.08571 -0.29406,0.128906 -0.44336,0.128906 -0.12166,0 -0.22827,-0.03668 -0.32227,-0.111328 -0.0912,-0.07465 -0.13867,-0.168706 -0.13867,-0.279297 0,-0.196299 0.0486,-0.336167 0.14258,-0.421875 0.0968,-0.08571 0.17781,-0.128906 0.24414,-0.128906 h 0.26953 l -2.28906,-6.158203 z m -48.541011,0.01953 c -0.182475,0 -0.474108,0.01108 -0.875,0.0332 -0.398127,0.01935 -0.614118,0.0293 -0.644531,0.0293 v 6.076172 h 0.830078 v -2.650391 c 0.400892,0.02765 0.693667,0.04102 0.878906,0.04102 l 1.621094,2.609375 h 0.951172 L 73.728516,42.9375 c 0.323478,-0.07465 0.602885,-0.264235 0.83789,-0.568359 0.235006,-0.30689 0.353516,-0.651665 0.353516,-1.033203 0,-1.161204 -0.729654,-1.742188 -2.189453,-1.742188 z m -12.625,0.0625 v 6.076172 h 0.830078 v -2.935547 h 2.654297 v 2.935547 h 0.828125 V 39.65625 h -0.828125 v 2.435547 H 60.935547 V 39.65625 Z m 5.55664,0 v 4.222656 c 0,0.630368 0.18502,1.11387 0.552735,1.451172 0.367714,0.337303 0.892131,0.505859 1.572265,0.50586 0.660781,-10e-7 1.180962,-0.17084 1.5625,-0.513672 0.384304,-0.345597 0.576172,-0.825674 0.576172,-1.439454 V 39.65625 h -0.828125 v 4.138672 c 0,0.398127 -0.11851,0.715025 -0.353515,0.947266 -0.235006,0.23224 -0.557611,0.347656 -0.966797,0.347656 -0.387068,0 -0.696635,-0.119652 -0.931641,-0.357422 -0.235005,-0.240535 -0.353515,-0.545536 -0.353515,-0.916016 V 39.65625 Z m 9.556641,0 v 0.748047 h 1.931641 v 5.328125 h 0.830078 V 40.404297 H 80 V 39.65625 Z m 10.164062,0 1.916016,6.160156 h 0.261719 l 1.351562,-4.189453 1.447266,4.189453 h 0.261719 l 1.890625,-6.160156 h -0.863281 l -1.240235,4.234375 -1.318359,-4.234375 h -0.289063 l -1.335937,4.244141 -1.21875,-4.244141 z m 7.804688,0 v 6.076172 h 0.787109 v -4.359375 l 3.140625,4.443359 h 0.248047 V 39.65625 h -0.787109 v 4.201172 L 93.519531,39.65625 Z m 5.566406,0 v 6.076172 h 0.828125 V 39.65625 Z m 9.318364,0 v 6.076172 h 0.82812 v -1.646484 l 0.80859,-1.148438 1.7129,2.794922 h 0.91796 l -2.07422,-3.441406 1.81641,-2.634766 h -0.92578 l -2.25586,3.306641 V 39.65625 Z m 9.11914,0 v 6.076172 h 0.83007 V 39.65625 Z m 7.0625,0 v 0.748047 h 2.57031 l -2.61133,5.121094 v 0.207031 h 3.84375 v -0.746094 h -2.71289 l 2.62109,-5.121094 V 39.65625 Z m 4.83984,0 v 6.076172 h 3.58398 v -0.746094 h -2.7539 v -2.189453 h 2.00586 v -0.705078 h -2.00586 v -1.6875 h 2.79883 V 39.65625 Z m 4.54883,0 v 6.076172 h 0.83008 v -1.646484 l 0.80859,-1.148438 1.71289,2.794922 h 0.91602 l -2.07422,-3.441406 1.81836,-2.634766 h -0.92578 l -2.25586,3.306641 V 39.65625 Z m -51.257814,0.638672 c 1.161204,0 1.742187,0.782795 1.742187,2.347656 0,0.774136 -0.150623,1.376148 -0.449219,1.804688 -0.29583,0.428539 -0.72619,0.642578 -1.292968,0.642578 -0.500424,0 -0.889539,-0.233926 -1.166016,-0.701172 -0.273712,-0.467247 -0.410156,-1.049371 -0.410156,-1.746094 0,-0.72437 0.134161,-1.296551 0.402344,-1.716797 0.268182,-0.420245 0.65958,-0.630859 1.173828,-0.630859 z m -9.853516,0.06641 c 0.525307,0 0.909044,0.07531 1.152344,0.22461 0.2433,0.149297 0.365234,0.394307 0.365234,0.734374 0,0.411951 -0.113132,0.697066 -0.339844,0.857422 -0.226711,0.160358 -0.590232,0.240235 -1.08789,0.240235 -0.188005,0 -0.381015,-0.01337 -0.580078,-0.04102 v -1.972656 c 0.2433,-0.02765 0.407291,-0.04297 0.490234,-0.04297 z m 30.37305,0.804688 0.86328,2.675781 h -1.80469 z m 18.4375,0 0.86328,2.675781 h -1.80469 z" />
  </g>
  <rect
     style="fill:#800000;stroke-width:0.173743"
     id="rect96"
     width="76.432152"
     height="1.1244023"
     x="56.113964"
     y="37.154247" />
  <path
     d="m 19.136229,50.402871 c -0.208856,-0.17111 -0.694096,-0.70132 -1.078296,-1.1783 -1.080736,-1.3416 -1.582783,-1.4281 -8.3200867,-1.434 -8.80519756,-0.008 -7.7868946,2.7476 -7.7739774,-21.031997 C 1.9774319,2.6615739 0.90817789,5.4145739 10.212193,5.5195739 c 7.331206,0.0826 7.763932,0.19552 9.10301,2.3761 l 0.63739,1.037701 0.512532,-0.93637 c 0.282749,-0.516581 0.993473,-1.2655 1.585294,-1.670501 l 1.072771,-0.734139 10.822428,-0.264581 2.121428,-1.6536 c 3.092798,-2.4108 2.38178,-2.6560001 10.55906,3.641901 8.89849,6.8532991 9.045602,7.1099981 5.594352,9.7538981 l -1.47148,1.127201 v 2.839 c 0,3.0196 -0.117324,3.474 -0.897097,3.474 -0.839329,0 -1.233086,-7.0432 -0.432001,-7.7269 0.156643,-0.13369 0.943312,-0.74422 1.748123,-1.3567 l 1.4633,-1.113701 -6.792419,-5.2200981 c -3.735785,-2.871001 -6.853772,-5.220101 -6.928836,-5.220101 -0.346474,0 -13.607511,10.4169991 -13.47188,10.5829991 0.245943,0.30214 13.357061,10.320001 13.50202,10.317001 0.07253,-0.002 1.919346,-1.3641 4.104069,-3.0279 5.004682,-3.811401 4.666899,-3.9408 4.666899,1.7874 0,6.509801 -2.047011,9.300401 -7.278821,9.9225 -6.749648,0.802619 -10.376786,-2.459 -10.382528,-9.3365 l -0.0029,-3.7083 -3.053115,-2.3588 c -4.658505,-3.599101 -4.645157,-3.853901 0.405361,-7.757701 l 3.508516,-2.7118981 -3.60755,0.004 c -4.46295,0.005 -5.63059,0.60271 -6.348567,3.2505981 -0.402973,1.486201 -0.26936,37.124998 0.137259,36.612998 1.205959,-1.5208 1.757307,-1.6312 8.620051,-1.7256 l 6.396076,-0.0879 0.05956,-4.587598 c 0.06365,-4.906801 0.07263,-4.961001 0.819022,-4.961001 0.739147,0 0.754793,0.0809 0.821675,4.251701 0.07694,4.795798 -0.03021,5.884198 -0.666835,6.771198 l -0.491454,0.68483 -6.287286,0.002 c -7.00512,0.002 -7.34484,0.0652 -8.670285,1.6229 -0.9563,1.1236 -1.927527,1.4984 -2.553723,0.98542 z m -0.0057,-38.547998 C 18.994419,10.518874 17.9739,8.7612739 17.006548,8.1969749 16.53543,7.9221439 14.93808,7.8405549 10.028841,7.8405549 H 3.6621166 V 45.633551 l 6.5030724,0.0925 c 6.969239,0.0991 7.165795,0.13525 8.460023,1.5543 l 0.511039,0.5602 0.05533,-17.419998 c 0.03042,-9.5812 0.0029,-17.936001 -0.06128,-18.565001 z m 22.790177,19.093001 c 3.50457,-1.236401 4.272064,-2.368601 4.272064,-6.3019 v -3.0904 l -0.617082,0.51614 c -6.306443,5.2748 -6.421478,5.2958 -10.775063,1.9614 l -3.132843,-2.3994 -0.0539,2.9257 c -0.102018,5.5368 4.549281,8.419801 10.307176,6.388499 z m 7.5142,0.596561 c -0.357812,-0.600792 -0.185232,-3.870701 0.22316,-4.228201 0.795479,-0.69634 1.409045,1.745301 1.003878,3.994899 -0.125835,0.698651 -0.866026,0.83937 -1.226987,0.233281 z"
     fill="#8d0a0a"
     id="path138"
     style="stroke-width:0.224133" />
</svg>
