<?xml version="1.0" encoding="UTF-8" standalone="no"?>
<svg
   xmlns:dc="http://purl.org/dc/elements/1.1/"
   xmlns:cc="http://creativecommons.org/ns#"
   xmlns:rdf="http://www.w3.org/1999/02/22-rdf-syntax-ns#"
   xmlns:svg="http://www.w3.org/2000/svg"
   xmlns="http://www.w3.org/2000/svg"
   xmlns:sodipodi="http://sodipodi.sourceforge.net/DTD/sodipodi-0.dtd"
   xmlns:inkscape="http://www.inkscape.org/namespaces/inkscape"
   width="105mm"
   height="39mm"
   viewBox="0 0 105 39"
   version="1.1"
   id="svg8"
   inkscape:version="1.0.1 (3bc2e813f5, 2020-09-07)"
   sodipodi:docname="logo-text-d.svg">
  <defs
     id="defs2" />
  <sodipodi:namedview
     id="base"
     pagecolor="#ffffff"
     bordercolor="#666666"
     borderopacity="1.0"
     inkscape:pageopacity="0.0"
     inkscape:pageshadow="2"
     inkscape:zoom="1.979899"
     inkscape:cx="176.2843"
     inkscape:cy="144.08104"
     inkscape:document-units="mm"
     inkscape:current-layer="layer1"
     inkscape:document-rotation="0"
     showgrid="false"
     inkscape:window-width="1440"
     inkscape:window-height="860"
     inkscape:window-x="0"
     inkscape:window-y="0"
     inkscape:window-maximized="0"
     units="mm" />
  <metadata
     id="metadata5">
    <rdf:RDF>
      <cc:Work
         rdf:about="">
        <dc:format>image/svg+xml</dc:format>
        <dc:type
           rdf:resource="http://purl.org/dc/dcmitype/StillImage" />
        <dc:title />
      </cc:Work>
    </rdf:RDF>
  </metadata>
  <g
     inkscape:label="Warstwa 1"
     inkscape:groupmode="layer"
     id="layer1">
    <g
       aria-label="COVER
"
       transform="scale(0.89684255,1.1150229)"
       id="text12"
       style="font-style:normal;font-variant:normal;font-weight:normal;font-stretch:normal;font-size:33.1796px;line-height:0;font-family:'Palatino Linotype';-inkscape-font-specification:'Palatino Linotype';fill:#ffffff;fill-opacity:1;stroke:none;stroke-width:0.829485">
      <path
         id="path40"
         style="font-style:normal;font-variant:normal;font-weight:normal;font-stretch:normal;line-height:1.25;font-family:'Palatino Linotype';-inkscape-font-specification:'Palatino Linotype';text-align:center;text-anchor:middle;fill:#ffffff;stroke-width:0.829485"
         sodipodi:type="inkscape:offset"
         inkscape:radius="0"
         inkscape:original="M 14.511719 0.23242188 C 12.027569 0.23242187 9.7852299 0.69131963 7.7871094 1.609375 C 5.7997896 2.5166297 4.197036 3.8952762 2.9765625 5.7421875 C 1.7668896 7.5782982 1.1621094 9.7269049 1.1621094 12.189453 C 1.1621094 15.764468 2.3764942 18.658913 4.8066406 20.873047 C 7.2475878 23.08718 10.417371 24.193359 14.316406 24.193359 C 17.03817 24.193359 19.598349 23.583755 21.996094 22.363281 L 22.611328 20.857422 L 22.335938 20.515625 C 21.795905 20.904448 21.228801 21.23389 20.634766 21.503906 C 20.05153 21.773922 19.317294 22.001936 18.431641 22.185547 C 17.545987 22.369158 16.623367 22.460938 15.662109 22.460938 C 13.491178 22.460938 11.589882 22.02329 9.9589844 21.148438 C 8.3388867 20.273585 7.0587973 19.021523 6.1191406 17.390625 C 5.179484 15.759726 4.7089844 13.863255 4.7089844 11.703125 C 4.7089844 9.5537955 5.108955 7.7394548 5.9082031 6.2597656 C 6.7074513 4.7692758 7.8300566 3.6350687 9.2773438 2.8574219 C 10.724631 2.0689744 12.36219 1.6757812 14.1875 1.6757812 C 15.397173 1.6757812 16.557455 1.8525629 17.669922 2.2089844 C 18.793189 2.5546052 19.748661 3.0415309 20.537109 3.6679688 L 20.699219 6.421875 L 20.830078 6.5507812 L 21.589844 6.5507812 L 21.705078 6.421875 C 21.921091 4.0349311 22.151976 2.5384302 22.400391 1.9335938 L 22.287109 1.7714844 C 21.347453 1.350259 20.175569 0.9899182 18.771484 0.6875 C 17.3674 0.38508177 15.948205 0.23242188 14.511719 0.23242188 z M 36.771484 0.25 C 34.784165 0.25 33.000723 0.57944154 31.423828 1.2382812 C 29.846933 1.8863203 28.498268 2.8089402 27.375 4.0078125 C 26.262533 5.1958841 25.474194 6.4923998 25.009766 7.8964844 C 24.545338 9.3005687 24.3125 10.811543 24.3125 12.431641 C 24.3125 13.695317 24.545338 15.095214 25.009766 16.628906 C 25.484994 18.162598 26.240481 19.511264 27.277344 20.677734 C 28.325007 21.844204 29.58867 22.726276 31.068359 23.320312 C 32.548048 23.903548 34.167228 24.193359 35.927734 24.193359 C 38.411884 24.193359 40.649399 23.654284 42.636719 22.574219 C 44.634839 21.494154 46.167063 19.981227 47.236328 18.037109 C 48.305593 16.092992 48.839844 13.901885 48.839844 11.460938 C 48.839844 7.9939288 47.750091 5.2598392 45.568359 3.2617188 C 43.386627 1.2527976 40.454506 0.25 36.771484 0.25 z M 105.88477 0.6875 C 105.53914 0.6875 104.98168 0.69714867 104.21484 0.71875 C 102.14112 0.79435455 100.49587 0.83203125 99.275391 0.83203125 C 98.173725 0.83203125 96.632769 0.78953021 94.65625 0.703125 L 94.527344 0.81640625 L 94.527344 1.6269531 L 94.65625 1.7402344 C 95.801119 1.783437 96.520882 1.8423642 96.8125 1.9179688 C 97.104117 1.9935733 97.297325 2.0901772 97.394531 2.2089844 C 97.502538 2.3277915 97.577891 2.5654535 97.621094 2.921875 C 97.675096 3.2782965 97.707955 4.0734133 97.71875 5.3046875 L 97.751953 8.4628906 L 97.751953 15.964844 L 97.734375 19.382812 C 97.723574 20.538482 97.681073 21.28432 97.605469 21.619141 C 97.540665 21.953961 97.448885 22.175196 97.330078 22.283203 C 97.222071 22.380406 97.000836 22.460584 96.666016 22.525391 C 96.331196 22.590197 95.660711 22.6443 94.65625 22.6875 L 94.527344 22.785156 L 94.527344 23.595703 L 94.65625 23.724609 C 97.410416 23.638204 98.956196 23.595703 99.291016 23.595703 C 99.723042 23.595703 100.323 23.605353 101.08984 23.626953 C 102.93676 23.69176 103.88545 23.724609 103.93945 23.724609 L 104.07031 23.595703 L 104.07031 22.785156 L 103.93945 22.6875 C 102.79458 22.644297 102.07677 22.58537 101.78516 22.509766 C 101.49354 22.42336 101.29355 22.319979 101.18555 22.201172 C 101.08834 22.082365 101.01298 21.844703 100.95898 21.488281 C 100.90498 21.13186 100.87213 20.343521 100.86133 19.123047 L 100.8457 15.964844 L 100.8457 8.4628906 C 100.8457 4.6502608 100.92783 2.6262862 101.08984 2.3886719 C 102.0943 2.075453 103.16281 1.9179688 104.29688 1.9179688 C 105.91697 1.9179687 107.20189 2.285087 108.15234 3.0195312 C 109.1028 3.7431748 109.57813 4.8184547 109.57812 6.2441406 C 109.57812 7.8318364 109.0487 9.0742491 107.99023 9.9707031 C 106.93177 10.867157 105.46812 11.314453 103.59961 11.314453 C 103.28639 11.314453 102.84874 11.298025 102.28711 11.265625 L 102.125 11.767578 C 104.06911 13.981711 105.97041 16.384407 107.82812 18.976562 C 109.42663 21.212298 110.59851 22.784152 111.34375 23.691406 C 112.25101 23.6266 113.08862 23.595703 113.85547 23.595703 C 114.56831 23.595703 115.18469 23.6266 115.70312 23.691406 L 115.84766 23.546875 L 115.84766 22.785156 L 115.71875 22.654297 C 115.32992 22.654297 115.04298 22.639822 114.85938 22.607422 C 114.68656 22.57502 114.47693 22.488064 114.22852 22.347656 C 113.9801 22.196447 113.42943 21.563639 112.57617 20.451172 C 111.72292 19.327905 110.92298 18.264226 110.17773 17.259766 L 107.87695 14.214844 C 107.0885 13.177982 106.54265 12.448569 106.24023 12.027344 C 107.87113 11.714124 109.15122 11.250402 110.08008 10.634766 C 111.00893 10.008328 111.71227 9.2576652 112.1875 8.3828125 C 112.66273 7.5079598 112.90039 6.616239 112.90039 5.7089844 C 112.90039 4.3481024 112.41347 3.1713943 111.44141 2.1777344 C 110.46935 1.1840745 108.61733 0.6875 105.88477 0.6875 z M 50.103516 0.703125 L 49.958984 0.84765625 L 49.958984 1.59375 L 50.103516 1.7402344 C 51.237584 1.8158389 51.886819 1.9617214 52.048828 2.1777344 C 52.210838 2.3829468 52.604031 3.2630656 53.230469 4.8183594 L 58.740234 18.443359 C 59.928306 21.597149 60.603615 23.41149 60.765625 23.886719 L 62.400391 23.886719 C 62.875619 22.353027 63.680384 20.197642 64.814453 17.421875 L 69.869141 4.9804688 C 70.51718 3.5223808 70.900724 2.6683368 71.019531 2.4199219 C 71.149139 2.1715069 71.295021 2.0043739 71.457031 1.9179688 C 71.619041 1.8315636 72.089541 1.7726364 72.867188 1.7402344 L 72.996094 1.609375 L 72.996094 0.83203125 L 72.867188 0.703125 C 71.106681 0.78953021 70.014975 0.83203125 69.59375 0.83203125 C 69.075319 0.83203125 67.870583 0.78953021 65.980469 0.703125 L 65.835938 0.83203125 L 65.835938 1.609375 L 65.980469 1.7402344 C 67.298148 1.8482408 68.08844 1.9400204 68.347656 2.015625 C 68.617672 2.0912295 68.751953 2.2631869 68.751953 2.5332031 C 68.751953 2.8572227 68.47179 3.8242967 67.910156 5.4335938 C 67.348523 7.0428908 66.920524 8.2099502 66.628906 8.9335938 L 62.400391 19.560547 L 57.330078 6.7460938 C 57.060061 6.0440514 56.751871 5.1851831 56.40625 4.1699219 C 56.060629 3.1438601 55.888672 2.5651547 55.888672 2.4355469 C 55.888672 2.2087331 56.013304 2.0580264 56.261719 1.9824219 C 56.520935 1.8960167 57.302496 1.8535156 58.609375 1.8535156 L 58.740234 1.7226562 L 58.740234 0.83203125 L 58.609375 0.703125 C 56.827268 0.78953021 55.396472 0.83203125 54.316406 0.83203125 C 53.160737 0.83203125 51.756016 0.78953021 50.103516 0.703125 z M 74.892578 0.703125 L 74.761719 0.81640625 L 74.761719 1.6269531 L 74.892578 1.7402344 L 76.123047 1.8359375 C 76.50107 1.8791401 76.766759 1.9332429 76.917969 1.9980469 C 77.079978 2.0520501 77.193004 2.1225792 77.257812 2.2089844 C 77.333421 2.2953896 77.397172 2.4480495 77.451172 2.6640625 C 77.505177 2.8800756 77.542853 3.2404163 77.564453 3.7480469 C 77.586053 4.2448769 77.597656 4.8941112 77.597656 5.6933594 L 77.613281 9.3710938 L 77.613281 15.316406 C 77.613281 16.266864 77.580432 17.648381 77.515625 19.462891 C 77.461622 21.266599 77.386269 22.212423 77.289062 22.298828 C 77.202657 22.374432 76.842316 22.574418 76.205078 22.898438 L 76.074219 23.060547 L 76.074219 23.595703 L 76.205078 23.724609 C 77.317545 23.638204 78.386047 23.595703 79.412109 23.595703 L 83.818359 23.626953 C 87.15576 23.626953 89.856997 23.659803 91.919922 23.724609 L 92.033203 23.595703 C 92.033203 22.774853 92.075704 21.786529 92.162109 20.630859 C 92.259315 19.47519 92.355919 18.663647 92.453125 18.199219 L 92.324219 18.085938 L 91.546875 18.085938 L 91.384766 18.199219 C 91.352364 18.426032 91.222908 18.993136 90.996094 19.900391 C 90.780081 20.796845 90.622597 21.370725 90.525391 21.619141 C 89.931355 21.867553 89.305324 22.023084 88.646484 22.087891 C 87.987644 22.152697 86.345261 22.185547 83.720703 22.185547 L 80.740234 22.185547 C 80.686234 21.116282 80.660156 19.447824 80.660156 17.179688 C 80.660156 15.06276 80.686234 13.549833 80.740234 12.642578 C 82.025512 12.588578 82.980984 12.5625 83.607422 12.5625 C 84.74149 12.5625 85.633211 12.593396 86.28125 12.658203 C 86.929289 12.723006 87.32926 12.809962 87.480469 12.917969 C 87.642481 13.025975 87.743909 13.155431 87.787109 13.306641 C 87.830312 13.447049 87.900841 13.896298 87.998047 14.652344 L 88.111328 15.623047 L 88.242188 15.753906 L 88.986328 15.753906 L 89.117188 15.623047 L 89.035156 11.978516 C 89.067563 10.790444 89.095588 9.6089115 89.117188 8.4316406 L 88.986328 8.3007812 L 88.242188 8.3007812 L 88.111328 8.4316406 L 88.046875 9.4355469 C 88.003675 9.9431773 87.949572 10.298694 87.884766 10.503906 C 87.830762 10.698318 87.743807 10.834552 87.625 10.910156 C 87.516993 10.974958 87.128624 11.038709 86.458984 11.103516 C 85.789344 11.168322 84.958504 11.201172 83.964844 11.201172 C 82.981985 11.201172 81.906705 11.168322 80.740234 11.103516 L 80.789062 7.8144531 L 80.837891 4.8496094 L 80.902344 2.2578125 C 82.230824 2.1390054 83.32253 2.0800781 84.175781 2.0800781 C 84.780618 2.0800781 85.681987 2.1293566 86.880859 2.2265625 C 88.090533 2.3129677 89.036357 2.5061755 89.716797 2.8085938 C 89.857206 3.6402439 89.925781 4.5155384 89.925781 5.4335938 C 89.925781 5.5091983 89.920956 5.5961535 89.910156 5.6933594 L 90.056641 5.8222656 L 90.849609 5.8222656 L 90.947266 5.6933594 C 91.076874 3.4792259 91.276862 1.8532687 91.546875 0.81640625 L 91.464844 0.703125 C 88.699877 0.76792893 85.54652 0.80078125 82.003906 0.80078125 C 80.967044 0.80078125 78.597201 0.76792893 74.892578 0.703125 z M 36.15625 1.6269531 C 37.905955 1.6269531 39.49906 2.0249706 40.935547 2.8242188 C 42.372034 3.6234669 43.478213 4.9035564 44.255859 6.6640625 C 45.033507 8.4245686 45.421875 10.396393 45.421875 12.578125 C 45.421875 14.587046 45.082785 16.401386 44.402344 18.021484 C 43.721903 19.630781 42.726801 20.819091 41.419922 21.585938 C 40.113043 22.352783 38.623319 22.736328 36.949219 22.736328 C 35.534333 22.736328 34.27067 22.470638 33.158203 21.941406 C 32.056536 21.412174 31.079814 20.609362 30.226562 19.529297 C 29.384112 18.438431 28.746479 17.135138 28.314453 15.623047 C 27.893228 14.100156 27.681641 12.680961 27.681641 11.363281 C 27.681641 8.1554882 28.439081 5.7295896 29.951172 4.0878906 C 31.463263 2.4461917 33.531692 1.6269531 36.15625 1.6269531 z "
         d="M 14.511719,0.23242188 C 12.027569,0.23242187 9.7852299,0.69131963 7.7871094,1.609375 5.7997896,2.5166297 4.197036,3.8952762 2.9765625,5.7421875 1.7668896,7.5782982 1.1621094,9.7269049 1.1621094,12.189453 c 0,3.575015 1.2143848,6.46946 3.6445312,8.683594 2.4409472,2.214133 5.6107304,3.320312 9.5097654,3.320312 2.721764,0 5.281943,-0.609604 7.679688,-1.830078 l 0.615234,-1.505859 -0.27539,-0.341797 c -0.540033,0.388823 -1.107137,0.718265 -1.701172,0.988281 -0.583236,0.270016 -1.317472,0.49803 -2.203125,0.681641 -0.885654,0.183611 -1.808274,0.275391 -2.769532,0.275391 -2.170931,0 -4.072227,-0.437648 -5.7031246,-1.3125 C 8.3388867,20.273585 7.0587973,19.021523 6.1191406,17.390625 5.179484,15.759726 4.7089844,13.863255 4.7089844,11.703125 4.7089844,9.5537955 5.108955,7.7394548 5.9082031,6.2597656 6.7074513,4.7692758 7.8300566,3.6350687 9.2773438,2.8574219 10.724631,2.0689744 12.36219,1.6757812 14.1875,1.6757812 c 1.209673,0 2.369955,0.1767817 3.482422,0.5332032 1.123267,0.3456208 2.078739,0.8325465 2.867187,1.4589844 l 0.16211,2.7539062 0.130859,0.1289062 h 0.759766 L 21.705078,6.421875 C 21.921091,4.0349311 22.151976,2.5384302 22.400391,1.9335938 L 22.287109,1.7714844 C 21.347453,1.350259 20.175569,0.9899182 18.771484,0.6875 17.3674,0.38508177 15.948205,0.23242188 14.511719,0.23242188 Z M 36.771484,0.25 c -1.987319,0 -3.770761,0.32944154 -5.347656,0.9882812 C 29.846933,1.8863203 28.498268,2.8089402 27.375,4.0078125 26.262533,5.1958841 25.474194,6.4923998 25.009766,7.8964844 24.545338,9.3005687 24.3125,10.811543 24.3125,12.431641 c 0,1.263676 0.232838,2.663573 0.697266,4.197265 0.475228,1.533692 1.230715,2.882358 2.267578,4.048828 1.047663,1.16647 2.311326,2.048542 3.791015,2.642578 1.479689,0.583236 3.098869,0.873047 4.859375,0.873047 2.48415,0 4.721665,-0.539075 6.708985,-1.61914 1.99812,-1.080065 3.530344,-2.592992 4.599609,-4.53711 1.069265,-1.944117 1.603516,-4.135224 1.603516,-6.576171 0,-3.4670092 -1.089753,-6.2010988 -3.271485,-8.1992192 C 43.386627,1.2527976 40.454506,0.25 36.771484,0.25 Z m 69.113286,0.4375 c -0.34563,0 -0.90309,0.009649 -1.66993,0.03125 -2.07372,0.0756045 -3.71897,0.11328125 -4.939449,0.11328125 -1.101666,0 -2.642622,-0.042501 -4.619141,-0.12890625 L 94.527344,0.81640625 V 1.6269531 l 0.128906,0.1132813 c 1.144869,0.043203 1.864632,0.1021298 2.15625,0.1777344 0.291617,0.075605 0.484825,0.1722084 0.582031,0.2910156 0.108007,0.1188071 0.18336,0.3564691 0.226563,0.7128906 0.054,0.3564215 0.08686,1.1515383 0.09766,2.3828125 l 0.0332,3.1582031 v 7.5019534 l -0.01758,3.417968 c -0.0108,1.15567 -0.0533,1.901508 -0.128906,2.236329 -0.0648,0.33482 -0.156584,0.556055 -0.275391,0.664062 -0.108007,0.0972 -0.329242,0.177381 -0.664062,0.242188 -0.33482,0.06481 -1.005305,0.118909 -2.009766,0.162109 l -0.128906,0.09766 v 0.810547 l 0.128906,0.128906 c 2.754166,-0.0864 4.299946,-0.128906 4.634766,-0.128906 0.432026,0 1.031984,0.0097 1.798824,0.03125 1.84692,0.06481 2.79561,0.09766 2.84961,0.09766 l 0.13086,-0.128906 v -0.810547 l -0.13086,-0.09766 c -1.14487,-0.0432 -1.86268,-0.10213 -2.15429,-0.177734 -0.29162,-0.08641 -0.49161,-0.189787 -0.59961,-0.308594 -0.0972,-0.118807 -0.17257,-0.356469 -0.22657,-0.712891 -0.054,-0.356421 -0.0868,-1.14476 -0.0977,-2.365234 l -0.0156,-3.158203 V 8.4628906 c 0,-3.8126298 0.0821,-5.8366044 0.24414,-6.0742187 1.00446,-0.3132189 2.07297,-0.4707031 3.20704,-0.4707031 1.62009,-10e-8 2.90501,0.3671182 3.85546,1.1015624 0.95046,0.7236436 1.42579,1.7989235 1.42578,3.2246094 0,1.5876958 -0.52942,2.8301085 -1.58789,3.7265625 -1.05846,0.8964539 -2.52211,1.3437499 -4.39062,1.3437499 -0.31322,0 -0.75087,-0.01643 -1.3125,-0.04883 l -0.16211,0.501953 c 1.94411,2.214133 3.84541,4.616829 5.70312,7.208984 1.59851,2.235736 2.77039,3.80759 3.51563,4.714844 0.90726,-0.06481 1.74487,-0.0957 2.51172,-0.0957 0.71284,0 1.32922,0.0309 1.84765,0.0957 l 0.14454,-0.144531 v -0.761719 l -0.12891,-0.130859 c -0.38883,0 -0.67577,-0.01448 -0.85937,-0.04687 -0.17282,-0.0324 -0.38245,-0.119358 -0.63086,-0.259766 -0.24842,-0.151209 -0.79909,-0.784017 -1.65235,-1.896484 -0.85325,-1.123267 -1.65319,-2.186946 -2.39844,-3.191406 l -2.30078,-3.044922 c -0.78845,-1.036862 -1.3343,-1.766275 -1.63672,-2.1875 1.6309,-0.31322 2.91099,-0.776942 3.83985,-1.392578 0.92885,-0.626438 1.63219,-1.3771008 2.10742,-2.2519535 0.47523,-0.8748527 0.71289,-1.7665735 0.71289,-2.6738281 0,-1.360882 -0.48692,-2.5375901 -1.45898,-3.53125 C 110.46935,1.1840745 108.61733,0.6875 105.88477,0.6875 Z M 50.103516,0.703125 49.958984,0.84765625 V 1.59375 l 0.144532,0.1464844 c 1.134068,0.075604 1.783303,0.221487 1.945312,0.4375 0.16201,0.2052124 0.555203,1.0853312 1.181641,2.640625 l 5.509765,13.6249996 c 1.188072,3.15379 1.863381,4.968131 2.025391,5.44336 h 1.634766 c 0.475228,-1.533692 1.279993,-3.689077 2.414062,-6.464844 L 69.869141,4.9804688 c 0.648039,-1.458088 1.031583,-2.312132 1.15039,-2.5605469 0.129608,-0.248415 0.27549,-0.415548 0.4375,-0.5019531 0.16201,-0.086405 0.63251,-0.1453324 1.410157,-0.1777344 L 72.996094,1.609375 V 0.83203125 L 72.867188,0.703125 c -1.760507,0.0864052 -2.852213,0.12890625 -3.273438,0.12890625 -0.518431,0 -1.723167,-0.042501 -3.613281,-0.12890625 L 65.835938,0.83203125 V 1.609375 l 0.144531,0.1308594 c 1.317679,0.1080064 2.107971,0.199786 2.367187,0.2753906 0.270016,0.075604 0.404297,0.2475619 0.404297,0.5175781 0,0.3240196 -0.280163,1.2910936 -0.841797,2.9003907 -0.561633,1.609297 -0.989632,2.7763564 -1.28125,3.5 L 62.400391,19.560547 57.330078,6.7460938 C 57.060061,6.0440514 56.751871,5.1851831 56.40625,4.1699219 56.060629,3.1438601 55.888672,2.5651547 55.888672,2.4355469 c 0,-0.2268138 0.124632,-0.3775205 0.373047,-0.453125 0.259216,-0.086405 1.040777,-0.1289063 2.347656,-0.1289063 L 58.740234,1.7226562 V 0.83203125 L 58.609375,0.703125 c -1.782107,0.0864052 -3.212903,0.12890625 -4.292969,0.12890625 -1.155669,0 -2.56039,-0.042501 -4.21289,-0.12890625 z m 24.789062,0 -0.130859,0.11328125 V 1.6269531 l 0.130859,0.1132813 1.230469,0.095703 c 0.378023,0.043203 0.643712,0.097305 0.794922,0.1621094 0.162009,0.054003 0.275035,0.1245323 0.339843,0.2109375 0.07561,0.086405 0.13936,0.2390651 0.19336,0.4550781 0.05401,0.2160131 0.09168,0.5763538 0.113281,1.0839844 0.0216,0.49683 0.0332,1.1460643 0.0332,1.9453125 l 0.01563,3.6777344 v 5.9453122 c 0,0.950458 -0.03285,2.331975 -0.09766,4.146485 -0.054,1.803708 -0.129356,2.749532 -0.226563,2.835937 -0.0864,0.0756 -0.446746,0.27559 -1.083984,0.59961 l -0.130859,0.162109 v 0.535156 l 0.130859,0.128906 c 1.112467,-0.0864 2.180969,-0.128906 3.207031,-0.128906 l 4.40625,0.03125 c 3.337401,0 6.038638,0.03285 8.101563,0.09766 l 0.113281,-0.128906 c 0,-0.82085 0.0425,-1.809174 0.128906,-2.964844 0.09721,-1.155669 0.19381,-1.967212 0.291016,-2.43164 l -0.128906,-0.113281 h -0.777344 l -0.162109,0.113281 c -0.0324,0.226813 -0.161858,0.793917 -0.388672,1.701172 -0.216013,0.896454 -0.373497,1.470334 -0.470703,1.71875 -0.594036,0.248412 -1.220067,0.403943 -1.878907,0.46875 -0.65884,0.06481 -2.301223,0.09766 -4.925781,0.09766 h -2.980469 c -0.054,-1.069265 -0.08008,-2.737723 -0.08008,-5.005859 0,-2.116928 0.02608,-3.629855 0.08008,-4.53711 1.285278,-0.054 2.24075,-0.08008 2.867188,-0.08008 1.134068,0 2.025789,0.0309 2.673828,0.0957 0.648039,0.0648 1.04801,0.151759 1.199219,0.259766 0.162012,0.108006 0.26344,0.237462 0.30664,0.388672 0.0432,0.140408 0.113732,0.589657 0.210938,1.345703 l 0.113281,0.970703 0.13086,0.130859 h 0.74414 l 0.13086,-0.130859 -0.08203,-3.644531 c 0.03241,-1.188072 0.06043,-2.3696045 0.08203,-3.5468754 l -0.13086,-0.1308594 h -0.74414 l -0.13086,0.1308594 -0.06445,1.0039063 c -0.0432,0.5076304 -0.0973,0.8631471 -0.162109,1.0683591 -0.054,0.194412 -0.140959,0.330646 -0.259766,0.40625 -0.108007,0.0648 -0.496376,0.128553 -1.166016,0.19336 -0.66964,0.06481 -1.50048,0.09766 -2.49414,0.09766 -0.982859,0 -2.058139,-0.03285 -3.22461,-0.09766 l 0.04883,-3.2890629 0.04883,-2.9648437 0.06445,-2.5917969 c 1.32848,-0.1188071 2.420186,-0.1777344 3.273437,-0.1777344 0.604837,0 1.506206,0.049278 2.705078,0.1464844 1.209674,0.086405 2.155498,0.279613 2.835938,0.5820313 0.140409,0.8316501 0.208984,1.7069446 0.208984,2.625 0,0.075605 -0.0048,0.1625597 -0.01563,0.2597656 l 0.146485,0.1289062 h 0.792968 l 0.09766,-0.1289062 C 91.076874,3.4792259 91.276862,1.8532687 91.546875,0.81640625 L 91.464844,0.703125 c -2.764967,0.0648039 -5.918324,0.0976563 -9.460938,0.0976563 -1.036862,0 -3.406705,-0.0328523 -7.111328,-0.0976563 z M 36.15625,1.6269531 c 1.749705,0 3.34281,0.3980175 4.779297,1.1972657 1.436487,0.7992481 2.542666,2.0793376 3.320312,3.8398437 0.777648,1.7605061 1.166016,3.7323305 1.166016,5.9140625 0,2.008921 -0.33909,3.823261 -1.019531,5.443359 -0.680441,1.609297 -1.675543,2.797607 -2.982422,3.564454 -1.306879,0.766845 -2.796603,1.15039 -4.470703,1.15039 -1.414886,0 -2.678549,-0.26569 -3.791016,-0.794922 -1.101667,-0.529232 -2.078389,-1.332044 -2.931641,-2.412109 -0.84245,-1.090866 -1.480083,-2.394159 -1.912109,-3.90625 -0.421225,-1.522891 -0.632812,-2.942086 -0.632812,-4.259766 0,-3.2077928 0.75744,-5.6336914 2.269531,-7.2753904 1.512091,-1.6416989 3.58052,-2.4609375 6.205078,-2.4609375 z" />
    </g>
    <g
       aria-label="HURTOWNIA KSIĄŻEK"
       transform="scale(1.2190493,0.82031138)"
       id="text94"
       style="font-style:normal;font-variant:normal;font-weight:normal;font-stretch:normal;font-size:9.20135px;line-height:1.25;font-family:'Trebuchet MS';-inkscape-font-specification:'Trebuchet MS';fill:#ffffff;fill-opacity:1;stroke:none;stroke-width:0.230034">
      <path
         id="path75"
         style="font-style:normal;font-variant:normal;font-weight:normal;font-stretch:normal;font-family:'Trebuchet MS';-inkscape-font-specification:'Trebuchet MS';fill:#ffffff;stroke-width:0.230034"
         sodipodi:type="inkscape:offset"
         inkscape:radius="0"
         inkscape:original="M 72.935547 38.845703 C 72.78878 38.845703 72.664337 38.896213 72.5625 38.998047 C 72.460662 39.099885 72.410156 39.224327 72.410156 39.371094 C 72.410156 39.51786 72.460666 39.643214 72.5625 39.748047 C 72.667333 39.849884 72.791776 39.900391 72.935547 39.900391 C 73.082313 39.900391 73.206756 39.849881 73.308594 39.748047 C 73.413427 39.643214 73.464844 39.51786 73.464844 39.371094 C 73.464844 39.227322 73.413424 39.103791 73.308594 39.001953 C 73.206756 38.89712 73.082313 38.845703 72.935547 38.845703 z M 25.849609 40.322266 C 25.037901 40.322266 24.393299 40.644177 23.914062 41.285156 C 23.437821 41.926136 23.199219 42.721344 23.199219 43.673828 C 23.199219 44.686216 23.433135 45.517092 23.900391 46.164062 C 24.370642 46.811034 25.01993 47.134766 25.849609 47.134766 C 26.760159 47.134766 27.460996 46.827824 27.949219 46.216797 C 28.437441 45.602774 28.679688 44.755106 28.679688 43.673828 C 28.679688 42.619507 28.437441 41.799045 27.949219 41.208984 C 27.463991 40.618924 26.763155 40.322266 25.849609 40.322266 z M 60.521484 40.328125 C 59.976352 40.328125 59.529087 40.489015 59.181641 40.8125 C 58.834194 41.135985 58.662109 41.543938 58.662109 42.035156 C 58.662109 42.439512 58.749059 42.784724 58.925781 43.072266 C 59.105495 43.359808 59.419856 43.608693 59.869141 43.818359 L 60.400391 44.066406 C 60.876632 44.291049 61.172249 44.497758 61.289062 44.689453 C 61.408873 44.878152 61.46875 45.083039 61.46875 45.304688 C 61.46875 45.601214 61.363052 45.845415 61.150391 46.037109 C 60.937729 46.228804 60.657083 46.326172 60.306641 46.326172 C 60.108955 46.326172 59.884412 46.285952 59.632812 46.205078 C 59.384208 46.121208 59.175547 46.017336 59.007812 45.894531 L 58.679688 46.720703 C 59.093029 46.996264 59.591711 47.134766 60.175781 47.134766 C 60.840723 47.134766 61.370254 46.961639 61.765625 46.617188 C 62.163991 46.272736 62.363281 45.853588 62.363281 45.359375 C 62.363281 44.9041 62.272551 44.529861 62.089844 44.236328 C 61.91013 43.9398 61.595769 43.685318 61.146484 43.472656 L 60.607422 43.216797 C 60.259975 43.049064 60.027882 42.919024 59.914062 42.826172 C 59.803239 42.733322 59.717197 42.618249 59.654297 42.480469 C 59.591397 42.342689 59.560547 42.189218 59.560547 42.021484 C 59.560547 41.748918 59.646588 41.525287 59.820312 41.351562 C 59.997031 41.177839 60.237455 41.091797 60.542969 41.091797 C 60.752635 41.091797 60.980953 41.132017 61.226562 41.212891 C 61.472172 41.293761 61.655581 41.377982 61.775391 41.464844 L 62.039062 40.681641 C 61.754515 40.445017 61.249325 40.328125 60.521484 40.328125 z M 48.003906 40.349609 L 45.332031 47.021484 L 46.337891 47.021484 L 46.822266 45.632812 L 49.271484 45.632812 L 49.724609 47.021484 L 50.722656 47.021484 L 48.242188 40.349609 L 48.003906 40.349609 z M 67.980469 40.349609 L 65.306641 47.021484 L 66.3125 47.021484 L 66.798828 45.632812 L 69.246094 45.632812 L 69.615234 46.755859 C 69.369626 46.968521 69.246094 47.245524 69.246094 47.583984 C 69.246094 47.91346 69.361164 48.180048 69.591797 48.386719 C 69.825425 48.593389 70.118308 48.697266 70.46875 48.697266 C 70.714359 48.697266 70.980036 48.645846 71.267578 48.541016 L 70.966797 47.902344 C 70.80805 47.995194 70.64807 48.041016 70.486328 48.041016 C 70.354537 48.041016 70.238556 48.000796 70.136719 47.919922 C 70.037879 47.839052 69.988281 47.73895 69.988281 47.619141 C 69.988281 47.406479 70.038791 47.253008 70.140625 47.160156 C 70.245458 47.067306 70.334365 47.021484 70.40625 47.021484 L 70.697266 47.021484 L 68.216797 40.349609 L 67.980469 40.349609 z M 15.390625 40.373047 C 15.19294 40.373047 14.877668 40.384243 14.443359 40.408203 C 14.012045 40.429173 13.77904 40.439453 13.746094 40.439453 L 13.746094 47.021484 L 14.644531 47.021484 L 14.644531 44.150391 C 15.07884 44.180341 15.396976 44.195312 15.597656 44.195312 L 17.353516 47.021484 L 18.382812 47.021484 L 16.472656 43.994141 C 16.823098 43.913271 17.126265 43.708382 17.380859 43.378906 C 17.635454 43.046436 17.763672 42.673108 17.763672 42.259766 C 17.763672 41.001768 16.972107 40.373047 15.390625 40.373047 z M 1.7148438 40.439453 L 1.7148438 47.021484 L 2.6132812 47.021484 L 2.6132812 43.841797 L 5.4882812 43.841797 L 5.4882812 47.021484 L 6.3867188 47.021484 L 6.3867188 40.439453 L 5.4882812 40.439453 L 5.4882812 43.076172 L 2.6132812 43.076172 L 2.6132812 40.439453 L 1.7148438 40.439453 z M 7.734375 40.439453 L 7.734375 45.013672 C 7.734375 45.696585 7.9336655 46.22052 8.3320312 46.585938 C 8.7303971 46.951355 9.2983297 47.134766 10.035156 47.134766 C 10.751017 47.134766 11.315174 46.947581 11.728516 46.576172 C 12.144853 46.201768 12.353516 45.682519 12.353516 45.017578 L 12.353516 40.439453 L 11.455078 40.439453 L 11.455078 44.923828 C 11.455078 45.355141 11.32686 45.695666 11.072266 45.947266 C 10.817671 46.198865 10.468685 46.326172 10.025391 46.326172 C 9.6060582 46.326172 9.2702196 46.197042 9.015625 45.939453 C 8.7610303 45.678825 8.6328125 45.346674 8.6328125 44.945312 L 8.6328125 40.439453 L 7.734375 40.439453 z M 18.085938 40.439453 L 18.085938 41.248047 L 20.179688 41.248047 L 20.179688 47.021484 L 21.078125 47.021484 L 21.078125 41.248047 L 23.267578 41.248047 L 23.267578 40.439453 L 18.085938 40.439453 z M 29.097656 40.439453 L 31.173828 47.111328 L 31.457031 47.111328 L 32.921875 42.574219 L 34.490234 47.111328 L 34.773438 47.111328 L 36.822266 40.439453 L 35.886719 40.439453 L 34.542969 45.027344 L 33.115234 40.439453 L 32.800781 40.439453 L 31.353516 45.035156 L 30.033203 40.439453 L 29.097656 40.439453 z M 37.554688 40.439453 L 37.554688 47.021484 L 38.408203 47.021484 L 38.408203 42.300781 L 41.808594 47.111328 L 42.078125 47.111328 L 42.078125 40.439453 L 41.224609 40.439453 L 41.224609 44.990234 L 37.914062 40.439453 L 37.554688 40.439453 z M 43.583984 40.439453 L 43.583984 47.021484 L 44.482422 47.021484 L 44.482422 40.439453 L 43.583984 40.439453 z M 53.679688 40.439453 L 53.679688 47.021484 L 54.578125 47.021484 L 54.578125 45.238281 L 55.453125 43.994141 L 57.308594 47.021484 L 58.302734 47.021484 L 56.054688 43.292969 L 58.023438 40.439453 L 57.021484 40.439453 L 54.578125 44.021484 L 54.578125 40.439453 L 53.679688 40.439453 z M 63.558594 40.439453 L 63.558594 47.021484 L 64.457031 47.021484 L 64.457031 40.439453 L 63.558594 40.439453 z M 71.208984 40.439453 L 71.208984 41.248047 L 73.996094 41.248047 L 71.164062 46.796875 L 71.164062 47.021484 L 75.330078 47.021484 L 75.330078 46.212891 L 72.390625 46.212891 L 75.230469 40.664062 L 75.230469 40.439453 L 71.208984 40.439453 z M 76.453125 40.439453 L 76.453125 47.021484 L 80.333984 47.021484 L 80.333984 46.212891 L 77.351562 46.212891 L 77.351562 43.841797 L 79.525391 43.841797 L 79.525391 43.076172 L 77.351562 43.076172 L 77.351562 41.248047 L 80.384766 41.248047 L 80.384766 40.439453 L 76.453125 40.439453 z M 81.380859 40.439453 L 81.380859 47.021484 L 82.28125 47.021484 L 82.28125 45.238281 L 83.15625 43.994141 L 85.011719 47.021484 L 86.003906 47.021484 L 83.757812 43.292969 L 85.726562 40.439453 L 84.724609 40.439453 L 82.28125 44.021484 L 82.28125 40.439453 L 81.380859 40.439453 z M 25.849609 41.130859 C 27.107606 41.130859 27.736328 41.978527 27.736328 43.673828 C 27.736328 44.512493 27.575438 45.164646 27.251953 45.628906 C 26.931463 46.093167 26.463631 46.326172 25.849609 46.326172 C 25.307472 46.326172 24.887413 46.0726 24.587891 45.566406 C 24.291363 45.060212 24.142578 44.428626 24.142578 43.673828 C 24.142578 42.889077 24.287588 42.269728 24.578125 41.814453 C 24.868662 41.359178 25.292496 41.130859 25.849609 41.130859 z M 15.175781 41.203125 C 15.744875 41.203125 16.160247 41.283566 16.423828 41.445312 C 16.687408 41.607054 16.820312 41.873773 16.820312 42.242188 C 16.820314 42.688477 16.696781 42.998152 16.451172 43.171875 C 16.205563 43.345598 15.812579 43.431641 15.273438 43.431641 C 15.06976 43.431641 14.860188 43.416669 14.644531 43.386719 L 14.644531 41.248047 C 14.908112 41.218097 15.085925 41.203125 15.175781 41.203125 z M 48.080078 42.076172 L 49.015625 44.972656 L 47.060547 44.972656 L 48.080078 42.076172 z M 68.056641 42.076172 L 68.990234 44.972656 L 67.035156 44.972656 L 68.056641 42.076172 z "
         d="m 72.935547,38.845703 c -0.146767,0 -0.27121,0.05051 -0.373047,0.152344 -0.101838,0.101838 -0.152344,0.22628 -0.152344,0.373047 0,0.146766 0.05051,0.27212 0.152344,0.376953 0.104833,0.101837 0.229276,0.152344 0.373047,0.152344 0.146766,0 0.271209,-0.05051 0.373047,-0.152344 0.104833,-0.104833 0.15625,-0.230187 0.15625,-0.376953 0,-0.143772 -0.05142,-0.267303 -0.15625,-0.369141 -0.101838,-0.104833 -0.226281,-0.15625 -0.373047,-0.15625 z m -47.085938,1.476563 c -0.811708,0 -1.45631,0.321911 -1.935547,0.96289 -0.476241,0.64098 -0.714843,1.436188 -0.714843,2.388672 0,1.012388 0.233916,1.843264 0.701172,2.490234 0.470251,0.646972 1.119539,0.970704 1.949218,0.970704 0.91055,0 1.611387,-0.306942 2.09961,-0.917969 0.488222,-0.614023 0.730469,-1.461691 0.730469,-2.542969 0,-1.054321 -0.242247,-1.874783 -0.730469,-2.464844 -0.485228,-0.59006 -1.186064,-0.886718 -2.09961,-0.886718 z m 34.671875,0.0059 c -0.545132,0 -0.992397,0.16089 -1.339843,0.484375 -0.347447,0.323485 -0.519532,0.731438 -0.519532,1.222656 0,0.404356 0.08695,0.749568 0.263672,1.03711 0.179714,0.287542 0.494075,0.536427 0.94336,0.746093 l 0.53125,0.248047 c 0.476241,0.224643 0.771858,0.431352 0.888671,0.623047 0.119811,0.188699 0.179688,0.393586 0.179688,0.615235 0,0.296526 -0.105698,0.540727 -0.318359,0.732421 -0.212662,0.191695 -0.493308,0.289063 -0.84375,0.289063 -0.197686,0 -0.422229,-0.04022 -0.673829,-0.121094 -0.248604,-0.08387 -0.457265,-0.187742 -0.625,-0.310547 l -0.328124,0.826172 c 0.413341,0.275561 0.912023,0.414063 1.496093,0.414063 0.664942,0 1.194473,-0.173127 1.589844,-0.517578 0.398366,-0.344452 0.597656,-0.7636 0.597656,-1.257813 0,-0.455275 -0.09073,-0.829514 -0.273437,-1.123047 -0.179714,-0.296528 -0.494075,-0.55101 -0.94336,-0.763672 l -0.539062,-0.255859 c -0.347447,-0.167733 -0.57954,-0.297773 -0.69336,-0.390625 -0.110823,-0.09285 -0.196865,-0.207923 -0.259765,-0.345703 -0.0629,-0.13778 -0.09375,-0.291251 -0.09375,-0.458985 0,-0.272566 0.08604,-0.496197 0.259765,-0.669922 0.176719,-0.173723 0.417143,-0.259765 0.722657,-0.259765 0.209666,0 0.437984,0.04022 0.683593,0.121094 0.24561,0.08087 0.429019,0.165091 0.548829,0.251953 l 0.263671,-0.783203 c -0.284547,-0.236624 -0.789737,-0.353516 -1.517578,-0.353516 z m -12.517578,0.02148 -2.671875,6.671875 h 1.00586 l 0.484375,-1.388672 h 2.449218 l 0.453125,1.388672 h 0.998047 l -2.480468,-6.671875 z m 19.976563,0 -2.673828,6.671875 H 66.3125 l 0.486328,-1.388672 h 2.447266 l 0.36914,1.123047 c -0.245608,0.212662 -0.36914,0.489665 -0.36914,0.828125 0,0.329476 0.11507,0.596064 0.345703,0.802735 0.233628,0.20667 0.526511,0.310547 0.876953,0.310547 0.245609,0 0.511286,-0.05142 0.798828,-0.15625 l -0.300781,-0.638672 c -0.158747,0.09285 -0.318727,0.138672 -0.480469,0.138672 -0.131791,0 -0.247772,-0.04022 -0.349609,-0.121094 -0.09884,-0.08087 -0.148438,-0.180972 -0.148438,-0.300781 0,-0.212662 0.05051,-0.366133 0.152344,-0.458985 0.104833,-0.09285 0.19374,-0.138672 0.265625,-0.138672 h 0.291016 l -2.480469,-6.671875 z m -52.589844,0.02344 c -0.197685,0 -0.512957,0.0112 -0.947266,0.03516 -0.431314,0.02097 -0.664319,0.03125 -0.697265,0.03125 v 6.582031 h 0.898437 v -2.871093 c 0.434309,0.02995 0.752445,0.04492 0.953125,0.04492 l 1.75586,2.826172 h 1.029296 l -1.910156,-3.027343 c 0.350442,-0.08087 0.653609,-0.285759 0.908203,-0.615235 0.254595,-0.33247 0.382813,-0.705798 0.382813,-1.11914 0,-1.257998 -0.791565,-1.886719 -2.373047,-1.886719 z m -13.6757812,0.06641 v 6.582031 h 0.8984374 v -3.179687 h 2.875 v 3.179687 H 6.3867188 V 40.439453 H 5.4882812 v 2.636719 h -2.875 v -2.636719 z m 6.0195312,0 v 4.574219 c 0,0.682913 0.1992905,1.206848 0.5976562,1.572266 0.3983659,0.365417 0.9662985,0.548828 1.7031248,0.548828 0.715861,0 1.280018,-0.187185 1.69336,-0.558594 0.416337,-0.374404 0.625,-0.893653 0.625,-1.558594 v -4.578125 h -0.898438 v 4.484375 c 0,0.431313 -0.128218,0.771838 -0.382812,1.023438 -0.254595,0.251599 -0.603581,0.378906 -1.046875,0.378906 -0.4193328,0 -0.7551714,-0.12913 -1.009766,-0.386719 C 8.7610303,45.678825 8.6328125,45.346674 8.6328125,44.945312 v -4.505859 z m 10.351563,0 v 0.808594 h 2.09375 v 5.773437 h 0.898437 v -5.773437 h 2.189453 v -0.808594 z m 11.011718,0 2.076172,6.671875 h 0.283203 l 1.464844,-4.537109 1.568359,4.537109 h 0.283204 l 2.048828,-6.671875 h -0.935547 l -1.34375,4.587891 -1.427735,-4.587891 h -0.314453 l -1.447265,4.595703 -1.320313,-4.595703 z m 8.457032,0 v 6.582031 h 0.853515 v -4.720703 l 3.400391,4.810547 h 0.269531 v -6.671875 h -0.853516 v 4.550781 l -3.310547,-4.550781 z m 6.029296,0 v 6.582031 h 0.898438 v -6.582031 z m 10.095704,0 v 6.582031 h 0.898437 v -1.783203 l 0.875,-1.24414 1.855469,3.027343 h 0.99414 l -2.248046,-3.728515 1.96875,-2.853516 h -1.001954 l -2.443359,3.582031 v -3.582031 z m 9.878906,0 v 6.582031 h 0.898437 v -6.582031 z m 7.65039,0 v 0.808594 h 2.78711 l -2.832032,5.548828 v 0.224609 h 4.166016 v -0.808593 h -2.939453 l 2.839844,-5.548829 v -0.224609 z m 5.244141,0 v 6.582031 h 3.880859 v -0.808593 h -2.982422 v -2.371094 h 2.173829 v -0.765625 h -2.173829 v -1.828125 h 3.033204 v -0.808594 z m 4.927734,0 v 6.582031 h 0.900391 v -1.783203 l 0.875,-1.24414 1.855469,3.027343 h 0.992187 l -2.246094,-3.728515 1.96875,-2.853516 h -1.001953 l -2.443359,3.582031 v -3.582031 z m -55.53125,0.691406 c 1.257997,0 1.886719,0.847668 1.886719,2.542969 0,0.838665 -0.16089,1.490818 -0.484375,1.955078 -0.32049,0.464261 -0.788322,0.697266 -1.402344,0.697266 -0.542137,0 -0.962196,-0.253572 -1.261718,-0.759766 -0.296528,-0.506194 -0.445313,-1.13778 -0.445313,-1.892578 0,-0.784751 0.14501,-1.4041 0.435547,-1.859375 0.290537,-0.455275 0.714371,-0.683594 1.271484,-0.683594 z m -10.673828,0.07227 c 0.569094,0 0.984466,0.08044 1.248047,0.242187 0.26358,0.161742 0.396484,0.428461 0.396484,0.796876 2e-6,0.446289 -0.123531,0.755964 -0.36914,0.929687 -0.245609,0.173723 -0.638593,0.259766 -1.177734,0.259766 -0.203678,0 -0.41325,-0.01497 -0.628907,-0.04492 v -2.138672 c 0.263581,-0.02995 0.441394,-0.04492 0.53125,-0.04492 z m 32.904297,0.873047 0.935547,2.896484 h -1.955078 z m 19.976563,0 0.933593,2.896484 h -1.955078 z" />
    </g>
    <rect
       style="fill:#800000;stroke-width:0.188229"
       id="rect96"
       width="105.83334"
       height="0.95307082"
       x="0.40944684"
       y="29.423073" />
  </g>
</svg>
